<?xml version="1.0" encoding="UTF-8"?>
<!DOCTYPE svg  PUBLIC '-//W3C//DTD SVG 1.1//EN'  'http://www.w3.org/Graphics/SVG/1.1/DTD/svg11.dtd'>
<svg width="288pt" height="288pt" version="1.1" viewBox="0 0 288 288" xmlns="http://www.w3.org/2000/svg" xmlns:xlink="http://www.w3.org/1999/xlink">
<metadata>
<rdf:RDF xmlns:cc="http://creativecommons.org/ns#" xmlns:dc="http://purl.org/dc/elements/1.1/" xmlns:rdf="http://www.w3.org/1999/02/22-rdf-syntax-ns#">
<cc:Work>
<dc:type rdf:resource="http://purl.org/dc/dcmitype/StillImage"/>
<dc:date>2025-03-26T07:42:20.403069</dc:date>
<dc:format>image/svg+xml</dc:format>
<dc:creator>
<cc:Agent>
<dc:title>Matplotlib v3.9.2, https://matplotlib.org/</dc:title>
</cc:Agent>
</dc:creator>
</cc:Work>
</rdf:RDF>
</metadata>
<defs>
<style type="text/css">*{stroke-linejoin: round; stroke-linecap: butt}</style>
</defs>
<path d="m0 288h288v-288h-288z" fill="#fff"/>
<path d="m43.441 248.38h233.76v-211.16h-233.76z" fill="#fff"/>
<defs>
<path id="av" d="m54.067-68.439v-0.75972l53.127-4.4376 31.077-4.5618 22.05-4.5344 17.103-4.3306 13.974-4.4157 11.815-4.2613 10.235-4.3287 9.0276-5.866 8.0755-4.5947 7.3051-4.2965 6.6691-4.6885 6.135-4.2412 5.6801-4.3823 5.288-4.0431 4.9466-4.5901v3.1094l-4.9466 5.0081-5.288 0.6405-5.6801 6.8689-6.135 4.2925-6.6691 4.5212-7.3051 4.15-8.0755 4.4471-9.0276 5.3206-10.235 4.4377-11.815 3.9875-13.974 4.2113-17.103 4.1742-22.05 4.328-31.077 4.5056-53.127 4.3297z" stroke="#1f77b4" stroke-opacity=".25"/>
</defs>
<g clip-path="url(#h)">
<use y="288" fill="#1f77b4" fill-opacity=".25" stroke="#1f77b4" stroke-opacity=".25" xlink:href="#av"/>
</g>
<defs>
<path id="aa" d="m0 0v3.5" stroke="#000" stroke-width=".8"/>
</defs>
<use x="54.066872" y="248.377187" stroke="#000000" stroke-width=".8" xlink:href="#aa"/>
<g transform="translate(51.576 262.13) scale(.1 -.1)">
<defs>
<path id="x" transform="scale(.015625)" d="m1862 4339-1152-582v-90c77 32 148 58 173 71 115 45 224 70 288 70 135 0 192-97 192-303v-2913c0-213-51-360-153-419-96-57-186-77-455-77v-96h1767v96c-506 0-608 64-608 374v3857l-52 12z"/>
</defs>
<use transform="scale(.99626)" xlink:href="#x"/>
</g>
<use x="107.193808" y="248.377187" stroke="#000000" stroke-width=".8" xlink:href="#aa"/>
<g transform="translate(104.7 262.13) scale(.1 -.1)">
<defs>
<path id="p" transform="scale(.015625)" d="m3040 875-83 32c-237-363-320-421-608-421h-1530l1075 1123c570 593 820 1078 820 1576 0 638-519 1128-1184 1128-352 0-685-140-922-395-205-218-301-422-410-875l135-32c256 625 486 829 928 829 537 0 902-364 902-900 0-497-294-1090-832-1658l-1139-1205v-77h2496l352 875z"/>
</defs>
<use transform="scale(.99626)" xlink:href="#p"/>
</g>
<use x="160.320743" y="248.377187" stroke="#000000" stroke-width=".8" xlink:href="#aa"/>
<g transform="translate(157.83 262.13) scale(.1 -.1)">
<defs>
<path id="at" transform="scale(.015625)" d="m3021 1497h-653v2855h-282l-2009-2855v-409h1798v-1056h493v1056h653v409zm-1152 0h-1536l1536 2201v-2201z"/>
</defs>
<use transform="scale(.99626)" xlink:href="#at"/>
</g>
<use x="213.447678" y="248.377187" stroke="#000000" stroke-width=".8" xlink:href="#aa"/>
<g transform="translate(210.96 262.13) scale(.1 -.1)">
<defs>
<path id="as" transform="scale(.015625)" d="m1856 2400c634 340 858 608 858 1044 0 524-461 908-1101 908-698 0-1216-428-1216-1011 0-416 121-601 793-1190-691-525-832-723-832-1159 0-620 506-1056 1229-1056 768 0 1261 423 1261 1082 0 493-218 806-992 1382zm-115-659c467-333 621-563 621-921 0-416-288-704-704-704-487 0-813 371-813 928 0 409 141 678 512 979l384-282zm-71 775c-569 371-800 665-800 1024 0 371 288 633 692 633 435 0 710-281 710-723 0-365-179-653-544-896-32-19-32-19-58-38z"/>
</defs>
<use transform="scale(.99626)" xlink:href="#as"/>
</g>
<use x="266.574613" y="248.377187" stroke="#000000" stroke-width=".8" xlink:href="#aa"/>
<g transform="translate(261.59 262.13) scale(.1 -.1)">
<defs>
<path id="aj" transform="scale(.015625)" d="m2854 4391c-729-64-1100-186-1568-512-691-493-1068-1223-1068-2077 0-554 172-1114 448-1432 243-281 588-434 985-434 794 0 1344 605 1344 1485 0 815-467 1331-1203 1331-282 0-416-45-819-288 173 967 889 1658 1894 1824l-13 103zm-1305-1933c550 0 870-458 870-1254 0-700-249-1088-697-1088-564 0-909 598-909 1584 0 325 51 503 179 599 134 101 333 159 557 159z"/>
</defs>
<use transform="scale(.99626)" xlink:href="#x"/>
<use transform="translate(49.813) scale(.99626)" xlink:href="#aj"/>
</g>
<g transform="translate(118.87 275.04) scale(.1 -.1)">
<defs>
<path id="ap" transform="scale(.015625)" d="m4314 3667v-2916c0-534-77-617-583-617v-134h1792v134c-467 0-557 89-557 547v2855c0 457 84 541 557 579v122h-1273l-1415-3233-1478 3233h-1267v-141c524 0 608-77 608-546v-2607c0-661-90-784-621-822v-121h1504v134c-493 0-602 148-602 797v2589l1607-3520h89l1639 3667z"/>
<path id="j" transform="scale(.015625)" d="m1600 2944c-832 0-1414-614-1414-1498 0-864 595-1510 1401-1510 807 0 1421 678 1421 1562 0 838-589 1446-1408 1446zm-83-179c537 0 915-615 915-1491 0-724-288-1159-768-1159-250 0-486 154-621 410-179 333-281 781-281 1235 0 608 300 1005 755 1005z"/>
<path id="o" transform="scale(.015625)" d="m2202-64 940 333v96h-147c-230 0-281 70-281 366v3633l-32 13c-308-109-532-173-941-281v-102c51 6 89 6 141 6 236 0 294-64 294-328v-1003c-243 205-416 275-672 275-736 0-1331-723-1331-1632 0-819 480-1376 1184-1376 358 0 601 128 819 429v-410l26-19zm-26 717c0-45-45-122-109-192-115-128-275-192-461-192-531 0-883 512-883 1299 0 723 314 1197 800 1197 339 0 653-301 653-640v-1472z"/>
<path id="v" transform="scale(.015625)" d="m1120 2929-992-350v-95l51 6c77 12 160 19 218 19 153 0 211-103 211-384v-1485c0-461-64-531-506-531v-109h1517v96c-422 32-473 95-473 554v2260l-26 19zm-301 1423c-173 0-320-147-320-326s141-327 320-327c186 0 333 141 333 327 0 179-147 326-333 326z"/>
<path id="bj" transform="scale(.015625)" d="m198 2669h436v-2103c0-418-71-502-429-502v-102h1408v96c-359 26-442 117-442 474v2137h551c614 0 646-19 646-364v-1714c0-442-45-501-442-533v-96h1408v96c-358 32-428 117-428 532v1699c0 142 0 292 12 635l-25 19c-282-44-467-63-723-63h-1005v271c0 278 19 473 51 581 90 271 339 460 627 460 179 0 301-82 455-297 121-169 204-232 313-232 135 0 231 107 231 246 0 266-320 443-813 443-487 0-858-164-1088-474-192-259-263-493-301-998h-442v-211z"/>
<path id="ah" transform="scale(.015625)" d="m2547 998c-307-448-537-601-902-601-583 0-992 512-992 1248 0 659 352 1113 870 1113 231 0 314-70 378-307l38-141c51-179 167-294 301-294 166 0 307 122 307 269 0 358-448 659-985 659-314 0-640-128-903-358-320-282-499-717-499-1223 0-832 506-1427 1216-1427 288 0 544 102 774 301 173 153 295 326 487 704l-90 57z"/>
<path id="g" transform="scale(.015625)" d="m2829 423c-109-90-186-122-282-122-147 0-192 89-192 371v1248c0 333-32 518-128 672-141 230-416 352-793 352-602 0-1076-314-1076-717 0-147 128-275 276-275 153 0 288 128 288 269 0 25-7 57-13 102-13 58-19 109-19 154 0 173 204 313 460 313 314 0 487-185 487-531v-390c-986-397-1095-448-1370-691-141-128-230-346-230-557 0-403 281-685 672-685 281 0 544 134 934 467 32-333 147-467 410-467 217 0 352 77 576 320v167zm-992 360c0-199-32-257-167-334-153-90-332-148-467-148-224 0-403 219-403 495v26c0 379 262 611 1037 893v-932z"/>
<path id="i" transform="scale(.015625)" d="m1632 2880h-646v742c0 64-7 84-45 84-45-58-83-116-128-180-243-352-519-659-621-685-70-47-109-93-109-126 0-20 7-33 26-33h339v-1931c0-539 192-815 570-815 313 0 556 154 768 487l-84 70c-134-160-243-224-384-224-236 0-332 174-332 578v1835h646v198z"/>
<path id="ac" transform="scale(.015625)" d="m102 2579c39 19 103 26 173 26 179 0 237-96 237-410v-1587c0-365-70-454-397-480v-96h1357v96c-326 26-422 102-422 333v1798c307 288 448 365 659 365 313 0 467-198 467-621v-1337c0-404-83-512-403-538v-96h1331v96c-314 32-390 109-390 422v1466c0 602-282 960-756 960-294 0-492-109-928-518v505l-44 13c-314-115-532-186-884-288v-109z"/>
<path id="t" transform="scale(.015625)" d="m45 2496c89 19 147 26 224 26 160 0 217-103 217-384v-1600c0-320-44-365-454-442v-96h1536v102c-435 0-544 97-544 463v1448c0 206 275 528 448 528 38 0 96-32 166-96 103-90 173-128 256-128 154 0 250 109 250 288 0 211-134 339-352 339-269 0-454-147-768-601v588l-32 13c-339-141-570-223-947-345v-103z"/>
<path id="ax" transform="scale(.015625)" d="m45 3987c83 7 141 13 205 13 211 0 275-83 275-390v-3085c0-333-19-352-480-429v-96h1497v102h-128c-256 0-352 91-352 317v1187l896-1191 20-26c12-19 25-38 44-58 52-64 71-102 71-133 0-58-58-96-135-96h-121v-102h1395v102c-282 0-480 123-749 451l-979 1252 186 173c454 422 851 716 1036 768 96 25 186 38 295 38h51v96h-1306v-96c250 0 320-26 320-115 0-51-57-141-147-218l-877-781v2688l-25 13c-243-77-429-128-800-230l-192-51v-103z"/>
<path id="bn" transform="scale(.015625)" d="m1318 1871c13 39 173 358 410 562 166 153 384 256 634 256 256 0 345-192 345-447 0-39 0-166-77-467l-160-657c-51-192-172-665-185-735-26-96-64-262-64-287 0-90 70-160 166-160 192 0 224 147 282 377l384 1526c13 51 345 850 1049 850 256 0 346-192 346-447 0-358-250-1054-390-1437-58-154-90-237-90-352 0-287 198-517 506-517 595 0 819 939 819 977 0 32-26 58-64 58-58 0-64-19-96-128-147-511-384-779-640-779-64 0-167 0-167 205 0 167 77 371 103 441 115 308 403 1063 403 1435 0 383-224 671-710 671-429 0-775-242-1031-619-19 345-230 619-710 619-570 0-871-401-986-561-19 363-281 561-563 561-186 0-333-89-454-332-116-230-205-619-205-645 0-25 25-57 70-57 51 0 58 6 96 153 96 377 218 754 474 754 147 0 198-103 198-294 0-141-64-390-109-588l-179-689c-25-122-96-409-128-524-45-166-115-466-115-498 0-90 70-160 166-160 77 0 167 38 218 134 13 32 70 256 102 383l141 575 211 843z"/>
</defs>
<use transform="scale(.99626)" xlink:href="#ap"/>
<use transform="translate(88.567) scale(.99626)" xlink:href="#j"/>
<use transform="translate(138.38) scale(.99626)" xlink:href="#o"/>
<use transform="translate(188.19) scale(.99626)" xlink:href="#v"/>
<use transform="translate(215.89) scale(.99626)" xlink:href="#bj"/>
<use transform="translate(271.28) scale(.99626)" xlink:href="#ah"/>
<use transform="translate(315.51) scale(.99626)" xlink:href="#g"/>
<use transform="translate(359.75) scale(.99626)" xlink:href="#i"/>
<use transform="translate(387.44) scale(.99626)" xlink:href="#v"/>
<use transform="translate(415.14) scale(.99626)" xlink:href="#j"/>
<use transform="translate(464.95) scale(.99626)" xlink:href="#ac"/>
<use transform="translate(539.67) scale(.99626)" xlink:href="#t"/>
<use transform="translate(572.85) scale(.99626)" xlink:href="#g"/>
<use transform="translate(617.08) scale(.99626)" xlink:href="#ac"/>
<use transform="translate(666.89) scale(.99626)" xlink:href="#ax"/>
<use transform="translate(741.61) scale(.99626)" xlink:href="#bn"/>
</g>
<defs>
<path id="s" d="m0 0h-3.5" stroke="#000" stroke-width=".8"/>
</defs>
<use x="43.441485" y="248.377187" stroke="#000000" stroke-width=".8" xlink:href="#s"/>
<g transform="translate(23.711 251.75) scale(.1 -.1)">
<defs>
<path id="ae" transform="scale(.015625)" d="m2688 2025c0 391-6 1055-275 1566-237 448-615 607-947 607-308 0-698-140-941-601-256-479-282-1073-282-1572 0-364 7-919 205-1406 275-658 768-747 1018-747 294 0 742 121 1004 728 192 442 218 959 218 1425zm-1222-2051c-410 0-653 351-743 838-70 376-70 926-70 1284 0 492 0 901 83 1291 122 542 480 709 730 709 262 0 601-173 723-696 83-364 89-793 89-1304 0-416 0-927-76-1304-135-697-512-818-736-818z"/>
<path id="z" transform="scale(.015625)" d="m1178 307c0 185-154 312-308 312-185 0-313-153-313-306 0-185 153-313 307-313 186 0 314 153 314 307z"/>
</defs>
<use transform="scale(.99626)" xlink:href="#ae"/>
<use transform="translate(45.69) scale(.99626)" xlink:href="#z"/>
<use transform="translate(72.788) scale(.99626)" xlink:href="#ae"/>
</g>
<use x="43.441485" y="210.330889" stroke="#000000" stroke-width=".8" xlink:href="#s"/>
<g transform="translate(23.711 213.71) scale(.1 -.1)">
<defs>
<path id="ak" transform="scale(.015625)" d="m730 3692c64-26 326-108 595-108 595 0 921 327 1107 516 0 57 0 92-38 92-7 0-20 0-71-29-224-105-486-190-806-190-192 0-480 26-794 166-70 32-83 32-89 32-32 0-39-7-39-134v-1834c0-114 0-146 64-146 32 0 45 13 77 57 205 287 486 408 806 408 224 0 704-140 704-1233 0-204 0-574-192-868-160-262-409-396-684-396-423 0-852 295-967 789 26-7 77-19 103-19 83 0 243 45 243 243 0 172-122 242-243 242-148 0-244-90-244-269 0-557 442-1139 1120-1139 660 0 1287 568 1287 1392 0 766-499 1360-1120 1360-327 0-602-121-819-350v1418z"/>
</defs>
<use transform="scale(.99626)" xlink:href="#ae"/>
<use transform="translate(45.69) scale(.99626)" xlink:href="#z"/>
<use transform="translate(72.788) scale(.99626)" xlink:href="#ak"/>
</g>
<use x="43.441485" y="172.284592" stroke="#000000" stroke-width=".8" xlink:href="#s"/>
<g transform="translate(23.711 175.66) scale(.1 -.1)">
<defs>
<path id="al" transform="scale(.015625)" d="m1702 4058c0 134-6 134-96 134-249-276-627-365-985-365-19 0-51 0-58-19-6-13-6-26-6-160 198 0 531 38 787 191v-3378c0-225-13-301-563-301h-192v-160h934 935v160h-192c-551 0-564 70-564 298v3600z"/>
</defs>
<use transform="scale(.99626)" xlink:href="#al"/>
<use transform="translate(45.69) scale(.99626)" xlink:href="#z"/>
<use transform="translate(72.788) scale(.99626)" xlink:href="#ae"/>
</g>
<use x="43.441485" y="134.238294" stroke="#000000" stroke-width=".8" xlink:href="#s"/>
<g transform="translate(23.711 137.62) scale(.1 -.1)">
<use transform="scale(.99626)" xlink:href="#al"/>
<use transform="translate(45.69) scale(.99626)" xlink:href="#z"/>
<use transform="translate(72.788) scale(.99626)" xlink:href="#ak"/>
</g>
<use x="43.441485" y="96.191996" stroke="#000000" stroke-width=".8" xlink:href="#s"/>
<g transform="translate(23.711 99.569) scale(.1 -.1)">
<defs>
<path id="au" transform="scale(.015625)" d="m2669 989h-115c-64-453-116-530-141-569-32-51-493-51-583-51h-1228c230 250 678 703 1222 1228 390 370 845 805 845 1438 0 755-602 1189-1274 1189-704 0-1133-620-1133-1194 0-250 186-282 263-282 64 0 256 39 256 262 0 197-167 254-256 254-39 0-77-6-103-19 122 545 493 813 884 813 556 0 921-441 921-1023 0-556-326-1035-691-1451l-1274-1438v-146h2253l154 989z"/>
</defs>
<use transform="scale(.99626)" xlink:href="#au"/>
<use transform="translate(45.69) scale(.99626)" xlink:href="#z"/>
<use transform="translate(72.788) scale(.99626)" xlink:href="#ae"/>
</g>
<use x="43.441485" y="58.145698" stroke="#000000" stroke-width=".8" xlink:href="#s"/>
<g transform="translate(23.711 61.523) scale(.1 -.1)">
<use transform="scale(.99626)" xlink:href="#au"/>
<use transform="translate(45.69) scale(.99626)" xlink:href="#z"/>
<use transform="translate(72.788) scale(.99626)" xlink:href="#ak"/>
</g>
<g transform="translate(17.555 175.87) rotate(-90) scale(.1 -.1)">
<defs>
<path id="ba" transform="scale(.015625)" d="m3910 3317c0 652 77 754 602 818v121h-1485v-121c499-38 602-179 602-818v-1725c0-434-45-677-147-869-173-307-583-505-1063-505-454 0-768 154-941 453-115 205-160 442-160 844v2045c0 460 71 530 583 575v121h-1811v-121c505-38 576-109 576-575v-1994c0-1106 518-1630 1606-1630 698 0 1178 224 1427 659 154 268 211 562 211 1055v1667z"/>
<path id="an" transform="scale(.015625)" d="m2016 2010-26 870h-70l-13-13c-57-45-64-51-89-51-39 0-103 13-173 45-141 54-282 83-448 83-506 0-871-328-871-790 0-358 205-615 749-923l371-211c224-128 333-283 333-481 0-283-205-462-531-462-218 0-416 82-538 221-134 157-192 302-275 662h-102v-999h83c45 72 70 87 147 87 58 0 147-13 295-50 179-37 352-62 467-62 493 0 902 372 902 821 0 320-153 532-537 763l-692 410c-179 103-275 264-275 437 0 257 199 436 493 436 365 0 557-220 704-793h96z"/>
<path id="m" transform="scale(.015625)" d="m2611 1053c-307-489-582-675-992-675-365 0-640 186-825 552-116 244-160 456-173 849h1971c-51 414-115 598-275 802-192 230-487 363-819 363-320 0-621-115-864-333-301-262-474-717-474-1241 0-884 461-1434 1197-1434 608 0 1088 379 1357 1072l-103 45zm-1977 931c70 495 288 730 678 730s544-179 627-730h-1305z"/>
<path id="w" transform="scale(.015625)" d="m1978 2880h-788v731c0 367 122 562 365 562 135 0 224-63 339-246 103-164 180-227 288-227 148 0 269 114 269 259 0 229-281 393-665 393-397 0-736-171-903-461-166-278-217-506-224-1011h-525v-205h525v-2019c0-471-70-547-531-547v-109h1664v109c-525 0-595 71-595 552v2014h781v205z"/>
<path id="n" transform="scale(.015625)" d="m3066 320h-32c-295 0-365 70-365 365v2195h-1011v-122c396 0 473-64 473-383v-1500c0-178-32-268-121-338-173-140-372-217-564-217-249 0-454 217-454 485v2075h-934v-102c307 0 396-96 396-391v-1617c0-507 308-834 775-834 237 0 486 102 659 275l275 275v-531l26-13c320 128 550 199 877 288v90z"/>
<path id="ai" transform="scale(.015625)" d="m122 4e3h38 198c205 0 269-90 269-390v-3053c0-346-89-429-493-461v-96h1511v109c-403 0-480 64-480 419v3843l-26 13c-333-109-576-173-1017-281v-103z"/>
<path id="be" transform="scale(.015625)" d="m4538 2304h-1632v-128c275 0 352-19 428-71 96-58 135-207 135-484v-1047c0-207-391-382-851-382-1044 0-1684 730-1684 1920 0 602 180 1184 461 1498 282 314 679 486 1114 486 358 0 672-121 921-352 192-179 295-352 455-742h147l-51 1350h-141c-38-121-154-211-288-211-64 0-166 19-282 64-288 96-582 147-870 147-1280 0-2195-940-2195-2246 0-627 173-1107 531-1485 429-441 1043-685 1747-685 551 0 1351 224 1607 449v1309c0 379 76 463 448 495v115z"/>
<path id="ar" transform="scale(.015625)" d="m3066 1472v1485h-148c-76-496-192-589-704-589h-928v1398c0 177 32 215 205 215h871c723 0 864-95 972-667h160l-19 910h-3398v-122c473-38 557-128 557-577v-2776c0-532-71-615-557-615v-134h1792v134c-493 0-583 91-583 558v1414h928c519 0 628-99 704-634h148z"/>
<path id="aq" transform="scale(.015625)" d="m3667 1114c-109-244-198-391-294-500-224-249-576-364-1107-364h-429c-467 0-551 38-551 263v3037c0 457 90 546 596 546v141h-1805v-122c473-38 557-129 557-579v-2855c0-451-90-547-557-547v-134h3443l307 1114h-160z"/>
<path id="bc" transform="scale(.015625)" d="m2310 4352c-1222 0-2092-921-2092-2208 0-601 204-1184 550-1555 371-403 941-653 1504-653 1261 0 2131 896 2131 2183 0 633-185 1177-537 1561-404 442-941 672-1556 672zm0-230c295 0 589-115 820-320 345-314 544-915 544-1677 0-377-84-819-212-1152-57-160-166-320-313-467-224-224-512-339-851-339-295 0-583 115-807 313-333 295-544 941-544 1652 0 652 179 1273 448 1574 250 275 563 416 915 416z"/>
<path id="ao" transform="scale(.015625)" d="m1293 1875c166-19 275-19 441-19 500 0 845 63 1120 216 384 202 615 588 615 1006 0 266-90 506-263 690-256 279-812 456-1414 456h-1690v-122c474-51 538-115 538-574v-2762c0-536-51-600-538-644v-122h1792v128c-505 0-601 90-601 565v1182zm0 1897c0 171 45 215 217 215 864 0 1261-297 1261-947 0-612-377-928-1113-928-128 0-218 7-365 19v1641z"/>
<path id="bb" transform="scale(.015625)" d="m2861 4352h-135c-25-147-96-217-204-217-64 0-173 25-282 77-237 89-474 140-678 140-276 0-557-108-768-294-224-199-340-468-340-802 0-513 282-871 999-1250 461-243 793-507 953-750 58-83 90-218 90-372 0-430-320-724-787-724-570 0-973 353-1293 1136h-147l192-1360h141c6 121 83 211 179 211 70 0 179-25 301-68 243-93 499-143 755-143 736 0 1305 506 1305 1165 0 525-352 941-1196 1395-672 372-941 653-941 999 0 352 269 595 665 595 288 0 557-122 781-352 199-205 288-371 391-749h160l-141 1363z"/>
</defs>
<use transform="scale(.99626)" xlink:href="#ba"/>
<use transform="translate(71.93) scale(.99626)" xlink:href="#an"/>
<use transform="translate(110.68) scale(.99626)" xlink:href="#m"/>
<use transform="translate(154.92) scale(.99626)" xlink:href="#w"/>
<use transform="translate(188.09) scale(.99626)" xlink:href="#n"/>
<use transform="translate(237.91) scale(.99626)" xlink:href="#ai"/>
<use transform="translate(290.51) scale(.99626)" xlink:href="#be"/>
<use transform="translate(362.44) scale(.99626)" xlink:href="#ar"/>
<use transform="translate(417.83) scale(.99626)" xlink:href="#aq"/>
<use transform="translate(478.7) scale(.99626)" xlink:href="#bc"/>
<use transform="translate(550.63) scale(.99626)" xlink:href="#ao"/>
<use transform="translate(606.02) scale(.99626)" xlink:href="#bb"/>
</g>
<path d="m54.067 218.84 53.127-4.4609 31.077-4.5515 22.05-4.5148 17.103-4.3603 13.974-4.3553 11.815-4.2301 10.235-4.4102 9.0276-5.7563 8.0755-4.6559 7.3051-4.2686 6.6691-4.7264 6.135-1.8988 5.6801-6.6797 5.288-3.5525 4.9466-4.7051" clip-path="url(#h)" fill="none" stroke="#1f77b4" stroke-linecap="square" stroke-width="1.2"/>
<defs>
<path id="f" d="m0 1.25c0.3315 0 0.64948-0.13171 0.88388-0.36612 0.23441-0.23441 0.36612-0.55238 0.36612-0.88388s-0.13171-0.64948-0.36612-0.88388c-0.23441-0.23441-0.55238-0.36612-0.88388-0.36612s-0.64948 0.13171-0.88388 0.36612c-0.23441 0.23441-0.36612 0.55238-0.36612 0.88388s0.13171 0.64948 0.36612 0.88388c0.23441 0.23441 0.55238 0.36612 0.88388 0.36612z" stroke="#1f77b4"/>
</defs>
<g clip-path="url(#h)" fill="#1f77b4" stroke="#1f77b4">
<use x="54.066872" y="218.841359" xlink:href="#f"/>
<use x="107.193808" y="214.380424" xlink:href="#f"/>
<use x="138.271072" y="209.828933" xlink:href="#f"/>
<use x="160.320743" y="205.314086" xlink:href="#f"/>
<use x="177.423796" y="200.953763" xlink:href="#f"/>
<use x="191.398008" y="196.598485" xlink:href="#f"/>
<use x="203.213035" y="192.368381" xlink:href="#f"/>
<use x="213.447678" y="187.958226" xlink:href="#f"/>
<use x="222.475272" y="182.201926" xlink:href="#f"/>
<use x="230.550731" y="177.546034" xlink:href="#f"/>
<use x="237.855872" y="173.277385" xlink:href="#f"/>
<use x="244.524943" y="168.550978" xlink:href="#f"/>
<use x="250.659893" y="166.652141" xlink:href="#f"/>
<use x="256.33997" y="159.972438" xlink:href="#f"/>
<use x="261.627996" y="156.419937" xlink:href="#f"/>
<use x="266.574613" y="151.714845" xlink:href="#f"/>
</g>
<path d="m54.067 216.22 53.127-11.088 31.077-9.8638 22.05-0.79592 17.103-6.083 13.974-5.5651 11.815-4.7078 10.235-3.3372 9.0276-3.6127 8.0755-3.2073 7.3051-2.5481 6.6691-2.5716 6.135-1.4288 5.6801-2.082 5.288-1.5596 4.9466-2.252" clip-path="url(#h)" fill="none" stroke="#808080" stroke-linecap="square" stroke-width="1.2"/>
<defs>
<path id="c" d="m0 1.25c0.3315 0 0.64948-0.13171 0.88388-0.36612 0.23441-0.23441 0.36612-0.55238 0.36612-0.88388s-0.13171-0.64948-0.36612-0.88388c-0.23441-0.23441-0.55238-0.36612-0.88388-0.36612s-0.64948 0.13171-0.88388 0.36612c-0.23441 0.23441-0.36612 0.55238-0.36612 0.88388s0.13171 0.64948 0.36612 0.88388c0.23441 0.23441 0.55238 0.36612 0.88388 0.36612z" stroke="#808080"/>
</defs>
<g clip-path="url(#h)" fill="#808080" stroke="#808080">
<use x="54.066872" y="216.223166" xlink:href="#c"/>
<use x="107.193808" y="205.135316" xlink:href="#c"/>
<use x="138.271072" y="195.271468" xlink:href="#c"/>
<use x="160.320743" y="194.475549" xlink:href="#c"/>
<use x="177.423796" y="188.39259" xlink:href="#c"/>
<use x="191.398008" y="182.827501" xlink:href="#c"/>
<use x="203.213035" y="178.119673" xlink:href="#c"/>
<use x="213.447678" y="174.782505" xlink:href="#c"/>
<use x="222.475272" y="171.16981" xlink:href="#c"/>
<use x="230.550731" y="167.962542" xlink:href="#c"/>
<use x="237.855872" y="165.414431" xlink:href="#c"/>
<use x="244.524943" y="162.842802" xlink:href="#c"/>
<use x="250.659893" y="161.413975" xlink:href="#c"/>
<use x="256.33997" y="159.33195" xlink:href="#c"/>
<use x="261.627996" y="157.772321" xlink:href="#c"/>
<use x="266.574613" y="155.520329" xlink:href="#c"/>
</g>
<path d="m54.067 215.26 53.127-13.641 31.077-12.72 22.05-11.066 17.103-10.147 13.974-9.6485 11.815-7.339 10.235-8.3202 9.0276-5.573 8.0755-6.7553 7.3051-6.0442 6.6691-3.8508 6.135-5.4821 5.6801-2.8779 5.288-3.8602 4.9466-3.6768" clip-path="url(#h)" fill="none" stroke="#ff7f0e" stroke-linecap="square" stroke-width="1.2"/>
<defs>
<path id="b" d="m0 1.25c0.3315 0 0.64948-0.13171 0.88388-0.36612 0.23441-0.23441 0.36612-0.55238 0.36612-0.88388s-0.13171-0.64948-0.36612-0.88388c-0.23441-0.23441-0.55238-0.36612-0.88388-0.36612s-0.64948 0.13171-0.88388 0.36612c-0.23441 0.23441-0.36612 0.55238-0.36612 0.88388s0.13171 0.64948 0.36612 0.88388c0.23441 0.23441 0.55238 0.36612 0.88388 0.36612z" stroke="#ff7f0e"/>
</defs>
<g clip-path="url(#h)" fill="#ff7f0e" stroke="#ff7f0e">
<use x="54.066872" y="215.258215" xlink:href="#b"/>
<use x="107.193808" y="201.617318" xlink:href="#b"/>
<use x="138.271072" y="188.896877" xlink:href="#b"/>
<use x="160.320743" y="177.830593" xlink:href="#b"/>
<use x="177.423796" y="167.683447" xlink:href="#b"/>
<use x="191.398008" y="158.034932" xlink:href="#b"/>
<use x="203.213035" y="150.695901" xlink:href="#b"/>
<use x="213.447678" y="142.375726" xlink:href="#b"/>
<use x="222.475272" y="136.80272" xlink:href="#b"/>
<use x="230.550731" y="130.04741" xlink:href="#b"/>
<use x="237.855872" y="124.003163" xlink:href="#b"/>
<use x="244.524943" y="120.15233" xlink:href="#b"/>
<use x="250.659893" y="114.670229" xlink:href="#b"/>
<use x="256.33997" y="111.792292" xlink:href="#b"/>
<use x="261.627996" y="107.932047" xlink:href="#b"/>
<use x="266.574613" y="104.25521" xlink:href="#b"/>
</g>
<path d="m54.067 214.66 53.127-15.322 31.077-15.424 22.05-14.003 17.103-13.56 13.974-11.286 11.815-13.358 10.235-10.291 9.0276-10.309 8.0755-6.1406 7.3051-13.309 6.6691-8.0418 6.135-5.655 5.6801-8.2996 5.288-6.8625 4.9466-4.834" clip-path="url(#h)" fill="none" stroke="#2ca02c" stroke-linecap="square" stroke-width="1.2"/>
<defs>
<path id="e" d="m0 1.25c0.3315 0 0.64948-0.13171 0.88388-0.36612 0.23441-0.23441 0.36612-0.55238 0.36612-0.88388s-0.13171-0.64948-0.36612-0.88388c-0.23441-0.23441-0.55238-0.36612-0.88388-0.36612s-0.64948 0.13171-0.88388 0.36612c-0.23441 0.23441-0.36612 0.55238-0.36612 0.88388s0.13171 0.64948 0.36612 0.88388c0.23441 0.23441 0.55238 0.36612 0.88388 0.36612z" stroke="#2ca02c"/>
</defs>
<g clip-path="url(#h)" fill="#2ca02c" stroke="#2ca02c">
<use x="54.066872" y="214.664148" xlink:href="#e"/>
<use x="107.193808" y="199.342312" xlink:href="#e"/>
<use x="138.271072" y="183.918604" xlink:href="#e"/>
<use x="160.320743" y="169.915849" xlink:href="#e"/>
<use x="177.423796" y="156.356311" xlink:href="#e"/>
<use x="191.398008" y="145.069978" xlink:href="#e"/>
<use x="203.213035" y="131.711634" xlink:href="#e"/>
<use x="213.447678" y="121.421032" xlink:href="#e"/>
<use x="222.475272" y="111.112069" xlink:href="#e"/>
<use x="230.550731" y="104.971489" xlink:href="#e"/>
<use x="237.855872" y="91.66227" xlink:href="#e"/>
<use x="244.524943" y="83.620453" xlink:href="#e"/>
<use x="250.659893" y="77.965404" xlink:href="#e"/>
<use x="256.33997" y="69.665835" xlink:href="#e"/>
<use x="261.627996" y="62.803371" xlink:href="#e"/>
<use x="266.574613" y="57.969396" xlink:href="#e"/>
</g>
<path d="m54.067 214.2 53.127-16.336 31.077-15.383 22.05-15.245 17.103-13.844 13.974-12.489 11.815-13.119 10.235-10.832 9.0276-12.406 8.0755-9.3573 7.3051-7.904 6.6691-10.022 6.135-6.7115 5.6801-3.6645 5.288-11.542 4.9466-6.0307" clip-path="url(#h)" fill="none" stroke="#d62728" stroke-linecap="square" stroke-width="1.2"/>
<defs>
<path id="a" d="m0 1.25c0.3315 0 0.64948-0.13171 0.88388-0.36612 0.23441-0.23441 0.36612-0.55238 0.36612-0.88388s-0.13171-0.64948-0.36612-0.88388c-0.23441-0.23441-0.55238-0.36612-0.88388-0.36612s-0.64948 0.13171-0.88388 0.36612c-0.23441 0.23441-0.36612 0.55238-0.36612 0.88388s0.13171 0.64948 0.36612 0.88388c0.23441 0.23441 0.55238 0.36612 0.88388 0.36612z" stroke="#d62728"/>
</defs>
<g clip-path="url(#h)" fill="#d62728" stroke="#d62728">
<use x="54.066872" y="214.198272" xlink:href="#a"/>
<use x="107.193808" y="197.862744" xlink:href="#a"/>
<use x="138.271072" y="182.47958" xlink:href="#a"/>
<use x="160.320743" y="167.234233" xlink:href="#a"/>
<use x="177.423796" y="153.390498" xlink:href="#a"/>
<use x="191.398008" y="140.901281" xlink:href="#a"/>
<use x="203.213035" y="127.781939" xlink:href="#a"/>
<use x="213.447678" y="116.95036" xlink:href="#a"/>
<use x="222.475272" y="104.544284" xlink:href="#a"/>
<use x="230.550731" y="95.187018" xlink:href="#a"/>
<use x="237.855872" y="87.283025" xlink:href="#a"/>
<use x="244.524943" y="77.260802" xlink:href="#a"/>
<use x="250.659893" y="70.549272" xlink:href="#a"/>
<use x="256.33997" y="66.884764" xlink:href="#a"/>
<use x="261.627996" y="55.342922" xlink:href="#a"/>
<use x="266.574613" y="49.312236" xlink:href="#a"/>
</g>
<path d="m54.067 213.65 53.127-16.495 31.077-16.204 22.05-13.919 17.103-13.925 13.974-14.586 11.815-12.871 10.235-12.396 9.0276-9.1329 8.0755-11.927 7.3051-8.8374 6.6691-11.001 6.135-4.498 5.6801-9.7775 5.288-6.2506 4.9466-5.9223" clip-path="url(#h)" fill="none" stroke="#9467bd" stroke-linecap="square" stroke-width="1.2"/>
<defs>
<path id="d" d="m0 1.25c0.3315 0 0.64948-0.13171 0.88388-0.36612 0.23441-0.23441 0.36612-0.55238 0.36612-0.88388s-0.13171-0.64948-0.36612-0.88388c-0.23441-0.23441-0.55238-0.36612-0.88388-0.36612s-0.64948 0.13171-0.88388 0.36612c-0.23441 0.23441-0.36612 0.55238-0.36612 0.88388s0.13171 0.64948 0.36612 0.88388c0.23441 0.23441 0.55238 0.36612 0.88388 0.36612z" stroke="#9467bd"/>
</defs>
<g clip-path="url(#h)" fill="#9467bd" stroke="#9467bd">
<use x="54.066872" y="213.646006" xlink:href="#d"/>
<use x="107.193808" y="197.151113" xlink:href="#d"/>
<use x="138.271072" y="180.946629" xlink:href="#d"/>
<use x="160.320743" y="167.027845" xlink:href="#d"/>
<use x="177.423796" y="153.102624" xlink:href="#d"/>
<use x="191.398008" y="138.516992" xlink:href="#d"/>
<use x="203.213035" y="125.64585" xlink:href="#d"/>
<use x="213.447678" y="113.249935" xlink:href="#d"/>
<use x="222.475272" y="104.117056" xlink:href="#d"/>
<use x="230.550731" y="92.190457" xlink:href="#d"/>
<use x="237.855872" y="83.353021" xlink:href="#d"/>
<use x="244.524943" y="72.351662" xlink:href="#d"/>
<use x="250.659893" y="67.853652" xlink:href="#d"/>
<use x="256.33997" y="58.076139" xlink:href="#d"/>
<use x="261.627996" y="51.82549" xlink:href="#d"/>
<use x="266.574613" y="45.903165" xlink:href="#d"/>
</g>
<path d="m43.441 248.38v-211.16" fill="none" stroke="#000" stroke-linecap="square" stroke-width=".8"/>
<path d="m277.2 248.38v-211.16" fill="none" stroke="#000" stroke-linecap="square" stroke-width=".8"/>
<path d="m43.441 248.38h233.76" fill="none" stroke="#000" stroke-linecap="square" stroke-width=".8"/>
<path d="m43.441 37.22h233.76" fill="none" stroke="#000" stroke-linecap="square" stroke-width=".8"/>
<g transform="translate(71.907 18.905) scale(.12 -.12)">
<defs>
<path id="aw" transform="scale(.015625)" d="m122 2547c83 19 134 26 204 26 167 0 224-103 224-411v-1623c0-347-89-443-448-443v-96h1421v96c-339 0-435 70-435 322v1816c0 12 51 76 96 121 160 147 435 256 659 256 282 0 423-226 423-679v-1404c0-361-71-432-436-432v-96h1434v96c-365 0-461 109-461 507v1618c192 275 403 390 698 390 365 0 480-173 480-704v-1350c0-365-51-416-423-461v-96h1402v96l-166 19c-192 0-276 115-276 365v1322c0 757-249 1142-742 1142-371 0-698-166-1043-537-115 364-333 537-679 537-281 0-460-90-992-493v480l-44 13c-327-122-544-192-896-288v-109z"/>
<path id="am" transform="scale(.015625)" d="m2675 864-115 26c-64-320-102-423-186-532-89-108-307-166-633-166h-883l1721 2592v96h-2221l-19-755h115c58 467 154 563 538 563h883l-1702-2592v-96h2413l89 864z"/>
<path id="u" transform="scale(.015625)" d="m58 2516c57 6 102 6 160 6 217 0 262-64 262-367v-3010c0-334-70-406-448-444v-109h1549v115c-480 0-563 71-563 477v1015c224-212 377-276 646-276 755 0 1344 720 1344 1652 0 797-448 1369-1069 1369-358 0-640-160-921-506v493l-39 13c-345-134-569-218-921-326v-102zm960-380c0 193 358 424 652 424 474 0 788-489 788-1236 0-713-314-1196-775-1196-301 0-665 231-665 424v1584z"/>
</defs>
<use transform="scale(.99626)" xlink:href="#ao"/>
<use transform="translate(55.392) scale(.99626)" xlink:href="#m"/>
<use transform="translate(99.625) scale(.99626)" xlink:href="#t"/>
<use transform="translate(132.8) scale(.99626)" xlink:href="#w"/>
<use transform="translate(165.98) scale(.99626)" xlink:href="#j"/>
<use transform="translate(215.79) scale(.99626)" xlink:href="#t"/>
<use transform="translate(248.96) scale(.99626)" xlink:href="#aw"/>
<use transform="translate(326.47) scale(.99626)" xlink:href="#g"/>
<use transform="translate(370.71) scale(.99626)" xlink:href="#ac"/>
<use transform="translate(420.52) scale(.99626)" xlink:href="#ah"/>
<use transform="translate(464.75) scale(.99626)" xlink:href="#m"/>
<use transform="translate(533.89) scale(.99626)" xlink:href="#j"/>
<use transform="translate(583.71) scale(.99626)" xlink:href="#w"/>
<use transform="translate(641.79) scale(.99626)" xlink:href="#w"/>
<use transform="translate(673.97) scale(.99626)" xlink:href="#g"/>
<use transform="translate(718.2) scale(.99626)" xlink:href="#ah"/>
<use transform="translate(762.43) scale(.99626)" xlink:href="#i"/>
<use transform="translate(790.13) scale(.99626)" xlink:href="#j"/>
<use transform="translate(839.94) scale(.99626)" xlink:href="#t"/>
<use transform="translate(873.12) scale(.99626)" xlink:href="#v"/>
<use transform="translate(900.81) scale(.99626)" xlink:href="#am"/>
<use transform="translate(945.05) scale(.99626)" xlink:href="#g"/>
<use transform="translate(989.28) scale(.99626)" xlink:href="#i"/>
<use transform="translate(1017) scale(.99626)" xlink:href="#v"/>
<use transform="translate(1044.7) scale(.99626)" xlink:href="#j"/>
<use transform="translate(1094.5) scale(.99626)" xlink:href="#ac"/>
<use transform="translate(1169.2) scale(.99626)" xlink:href="#n"/>
<use transform="translate(1219) scale(.99626)" xlink:href="#u"/>
<use transform="translate(1268.8) scale(.99626)" xlink:href="#o"/>
<use transform="translate(1318.6) scale(.99626)" xlink:href="#g"/>
<use transform="translate(1362.9) scale(.99626)" xlink:href="#i"/>
<use transform="translate(1390.6) scale(.99626)" xlink:href="#m"/>
<use transform="translate(1434.8) scale(.99626)" xlink:href="#an"/>
</g>
<g transform="translate(92.447 31.22) scale(.12 -.12)">
<defs>
<path id="bm" transform="scale(.015625)" d="m1318 1871c13 39 173 358 410 562 166 153 384 256 634 256 256 0 345-192 345-447 0-364-262-1092-390-1437-58-154-90-237-90-352 0-287 199-517 506-517 595 0 819 939 819 977 0 32-26 58-64 58-58 0-64-19-96-128-147-524-390-779-640-779-64 0-166 0-166 205 0 160 70 352 108 441 128 353 397 1070 397 1435 0 383-224 671-710 671-570 0-871-401-986-561-19 363-281 561-563 561-205 0-346-121-454-338-116-230-205-613-205-639 0-25 25-57 70-57 51 0 58 6 96 153 103 390 218 754 474 754 147 0 198-103 198-294 0-141-64-390-109-588l-179-689c-25-122-96-409-128-524-45-166-115-466-115-498 0-90 70-160 166-160 77 0 167 38 218 134 13 32 70 256 102 383l141 575 211 843z"/>
<path id="bk" transform="scale(.015625)" d="m4115 2017c96 0 192 0 192 108 0 115-109 115-217 115h-3578c-109 0-218 0-218-115 0-108 96-108 192-108h3629zm-25-1121c108 0 217 0 217 115 0 108-96 108-192 108h-3629c-96 0-192 0-192-108 0-115 109-115 218-115h3578z"/>
<path id="bl" transform="scale(.015625)" d="m678 2176c0 1514 717 1856 1133 1856 135 0 461-23 589-256-102 0-294 0-294-223 0-172 140-230 230-230 58 0 230 25 230 237 0 394-320 619-761 619-762 0-1562-789-1562-2195 0-1731 723-2112 1235-2112 621 0 1210 555 1210 1411 0 798-518 1379-1171 1379-391 0-679-255-839-702v216zm800-2151c-787 0-787 1175-787 1411 0 460 218 1124 813 1124 109 0 422 0 634-440 115-250 115-511 115-831 0-345 0-599-135-855-140-263-345-409-640-409z"/>
<path id="r" transform="scale(.015625)" d="m1888 4326c-474-307-666-473-902-768-455-556-679-1196-679-1945 0-813 237-1440 800-2093 263-307 429-448 762-653l77 103c-512 403-692 627-864 1107-154 429-224 915-224 1555 0 672 83 1197 256 1594 179 396 371 627 832 998l-58 102z"/>
<path id="bh" transform="scale(.015625)" d="m205 2675h441v-2038c0-293-38-456-128-515-64-45-128-58-313-58v-102h1433v96c-364 39-454 117-454 416v2201h1203v-2168c0-319-96-423-429-449v-96h1376v96c-345 26-409 90-409 424v3857l-32 13c-51-6-122-32-199-70-121-58-211-90-268-90-32 0-96 19-192 51-180 71-365 109-519 109-301 0-595-151-774-398-192-271-256-518-282-1074h-454v-205zm2182 205h-1203v328c0 656 134 971 416 971 141 0 218-50 333-221 121-176 205-232 352-232 45 0 70 12 102 44v-890z"/>
<path id="y" transform="scale(.015625)" d="m531-889c429 211 717 601 717 985 0 320-224 570-512 570-224 0-378-147-378-365 0-205 148-326 378-326 38 0 83 6 122 12 44 13 44 13 51 13 51 0 89-38 89-89 0-205-179-442-524-679l57-121z"/>
<path id="bf" transform="scale(.015625)" d="m4518 128c-288 0-352 64-576 539l-1593 3653h-128l-1331-3152c-410-937-487-1040-794-1040v-128h1267v128c-307 0-435 84-435 265 0 77 19 167 51 252l295 756h1676l263-623c77-176 121-344 121-436 0-162-108-214-448-214v-128h1632v128zm-3136 1536 736 1752 743-1752h-1479z"/>
<path id="az" transform="scale(.015625)" d="m4461 4231h-1312v-135c352 0 467-70 467-250 0-102-45-274-122-466l-940-2347-967 2166c-211 468-262 615-262 711 0 122 89 186 294 186 26 0 96 0 186 13v122h-1703v-135c314 0 404-89 679-657l1574-3503h96l1421 3585c211 505 282 575 589 575v135z"/>
<path id="ay" transform="scale(.015625)" d="m4454 4224h-1523v-128c346 0 448-44 448-192 0-96-70-212-256-442l-723-884-269 377c-390 545-544 821-544 962 0 128 96 179 307 179h180v128h-1933v-128c416 0 531-96 1158-989l698-1027-1005-1232c-570-676-602-702-928-727v-121h1491v134c-371 0-486 51-486 200 0 96 96 257 333 552l761 951 608-897c211-313 327-531 327-627 0-115-103-179-320-179-26 0-96 0-173-13v-121h1901v121c-340 38-436 102-711 472l-1229 1748 935 1174c416 503 544 581 953 581v128z"/>
<path id="bi" transform="scale(.015625)" d="m250 1619v-403h1574v403h-1574z"/>
<path id="bg" transform="scale(.015625)" d="m1158 3776h1255c102 0 128 13 147 58l243 569-57 45c-96-134-160-166-295-166h-1337l-698-1523c-6-13-6-19-6-32 0-32 25-51 76-51 205 0 461-45 724-129 736-238 1075-637 1075-1273 0-618-391-1101-890-1101-128 0-237 45-429 187-204 148-352 212-486 212-186 0-275-77-275-238 0-244 301-398 781-398 537 0 998 174 1318 502 294 290 429 656 429 1145 0 463-122 759-442 1080-281 284-646 431-1401 566l268 547z"/>
<path id="q" transform="scale(.015625)" d="m243-1133c474 307 666 474 903 768 454 557 678 1197 678 1946 0 819-237 1440-800 2093-262 307-429 448-762 652l-76-102c512-403 684-627 864-1107 153-429 224-915 224-1555 0-666-84-1197-256-1588-180-403-372-633-832-1004l57-103z"/>
</defs>
<use transform="scale(.99626)" xlink:href="#w"/>
<use transform="translate(33.175) scale(.99626)" xlink:href="#j"/>
<use transform="translate(82.988) scale(.99626)" xlink:href="#t"/>
<use transform="translate(141.07) scale(.99626)" xlink:href="#bm"/>
<use transform="translate(226.97) scale(.99626)" xlink:href="#bk"/>
<use transform="translate(326.36) scale(.99626)" xlink:href="#al"/>
<use transform="translate(372.05) scale(.99626)" xlink:href="#bl"/>
<use transform="translate(442.65) scale(.99626)" xlink:href="#r"/>
<use transform="translate(475.83) scale(.99626)" xlink:href="#bh"/>
<use transform="translate(531.22) scale(.99626)" xlink:href="#j"/>
<use transform="translate(581.03) scale(.99626)" xlink:href="#g"/>
<use transform="translate(625.26) scale(.99626)" xlink:href="#i"/>
<use transform="translate(652.96) scale(.99626)" xlink:href="#y"/>
<use transform="translate(702.77) scale(.99626)" xlink:href="#bf"/>
<use transform="translate(761.25) scale(.99626)" xlink:href="#az"/>
<use transform="translate(833.18) scale(.99626)" xlink:href="#ay"/>
<use transform="translate(905.11) scale(.99626)" xlink:href="#bi"/>
<use transform="translate(938.29) scale(.99626)" xlink:href="#bg"/>
<use transform="translate(988.1) scale(.99626)" xlink:href="#x"/>
<use transform="translate(1037.9) scale(.99626)" xlink:href="#p"/>
<use transform="translate(1087.7) scale(.99626)" xlink:href="#q"/>
</g>
<path d="m50.441 114.66h132.13q2 0 2-2v-68.441q0-2-2-2h-132.13q-2 0-2 2v68.441q0 2 2 2z" fill="#fff" opacity=".8" stroke="#ccc"/>
<path d="m50.941 48.22h10 10" fill="none" stroke="#1f77b4" stroke-linecap="square" stroke-width="1.2"/>
<use x="60.941485" y="48.220259" fill="#1f77b4" stroke="#1f77b4" xlink:href="#f"/>
<g transform="translate(78.941 51.72) scale(.1 -.1)">
<defs>
<path id="bd" transform="scale(.015625)" d="m2643 4109c77-13 141-13 167-13 192 0 268-51 268-179 0-142-147-334-499-660l-1133-1033v1310c0 466 71 537 589 575v122h-1817v-122c499-38 576-121 576-578v-2781c0-533-71-616-576-616v-134h1804v134c-499 0-576 77-576 549v1208l167 135 678-671c487-479 832-933 832-1086 0-90-89-135-269-135-32 0-102 0-179-13v-121h1952v134c-333 0-422 64-1005 682l-1491 1593 1216 1202c435 415 538 466 973 498v122h-1677v-122z"/>
</defs>
<use transform="scale(.99626)" xlink:href="#ar"/>
<use transform="translate(55.392) scale(.99626)" xlink:href="#n"/>
<use transform="translate(105.2) scale(.99626)" xlink:href="#ai"/>
<use transform="translate(132.9) scale(.99626)" xlink:href="#ai"/>
<use transform="translate(185.5) scale(.99626)" xlink:href="#w"/>
<use transform="translate(217.68) scale(.99626)" xlink:href="#g"/>
<use transform="translate(261.91) scale(.99626)" xlink:href="#ah"/>
<use transform="translate(306.15) scale(.99626)" xlink:href="#i"/>
<use transform="translate(333.84) scale(.99626)" xlink:href="#j"/>
<use transform="translate(383.66) scale(.99626)" xlink:href="#t"/>
<use transform="translate(416.83) scale(.99626)" xlink:href="#v"/>
<use transform="translate(444.53) scale(.99626)" xlink:href="#am"/>
<use transform="translate(488.76) scale(.99626)" xlink:href="#g"/>
<use transform="translate(532.99) scale(.99626)" xlink:href="#i"/>
<use transform="translate(560.69) scale(.99626)" xlink:href="#v"/>
<use transform="translate(588.38) scale(.99626)" xlink:href="#j"/>
<use transform="translate(638.2) scale(.99626)" xlink:href="#ac"/>
<use transform="translate(712.92) scale(.99626)" xlink:href="#r"/>
<use transform="translate(746.09) scale(.99626)" xlink:href="#ap"/>
<use transform="translate(834.66) scale(.99626)" xlink:href="#bd"/>
<use transform="translate(906.59) scale(.99626)" xlink:href="#aq"/>
<use transform="translate(967.46) scale(.99626)" xlink:href="#q"/>
</g>
<path d="m50.941 59.877h10 10" fill="none" stroke="#808080" stroke-linecap="square" stroke-width="1.2"/>
<use x="60.941485" y="59.877088" fill="#808080" stroke="#808080" xlink:href="#c"/>
<g transform="translate(78.941 63.377) scale(.1 -.1)">
<defs>
<path id="k" transform="scale(.015625)" d="m1338 2304v1229c0 457 70 526 563 571v120h-1779v-120c492-45 563-115 563-577v-2778c0-539-64-615-563-615v-134h1779v121c-480 38-563 121-563 578v1323h1939v-1265c0-546-64-623-563-623v-134h1779v121c-480 38-563 121-563 575v2833c0 460 70 530 563 575v120h-1779v-120c492-45 563-114 563-571v-1229h-1939z"/>
<path id="ab" transform="scale(.015625)" d="m3040 2880h-864v-96c205 0 307-58 307-161 0-26-6-64-25-109l-621-1772-736 1635c-39 91-64 175-64 245 0 117 96 162 371 162v96h-1318v-90c166-25 275-96 326-205l730-1580 19-52 96-192c179-321 281-552 281-649 0-96-147-501-256-694-89-167-230-289-320-289-38 0-96 13-160 45-121 45-230 71-339 71-147 0-275-128-275-282 0-211 205-371 474-371 428 0 736 359 1081 1284l986 2619c83 206 153 270 307 289v96z"/>
<path id="ag" transform="scale(.015625)" d="m2490 2612c-199-38-301-179-301-319 0-154 121-205 211-205 179 0 326 154 326 345 0 205-198 383-518 383-256 0-550-115-819-504-45 338-301 504-557 504-250 0-378-191-454-332-109-230-205-613-205-645 0-25 25-57 70-57 51 0 58 6 96 153 96 383 218 754 474 754 153 0 198-109 198-294 0-141-64-390-109-588l-179-689c-25-122-96-409-128-524-45-166-115-466-115-498 0-90 70-160 166-160 71 0 192 45 231 173 19 51 256 1015 294 1162 32 140 71 275 103 415 25 89 51 192 70 275 19 57 192 370 352 511 77 70 243 217 506 217 102 0 204-19 288-77z"/>
<path id="l" transform="scale(.015625)" d="m3418 2470h-3226v-422h3226v422zm0-1280h-3226v-422h3226v422z"/>
<path id="af" transform="scale(.015625)" d="m1459 1280c109-19 282-57 320-64 83-24 371-126 371-433 0-197-179-713-921-713-135 0-615 0-743 366 256-32 384 167 384 309 0 135-89 205-217 205-141 0-327-109-327-398 0-379 384-616 896-616 973 0 1261 715 1261 1048 0 95 0 274-205 478-160 154-313 186-659 256-173 38-448 96-448 383 0 128 115 588 723 588 269 0 532-100 596-321-282 0-295-243-295-249 0-135 122-173 179-173 90 0 269 69 269 335 0 264-243 535-742 535-839 0-1063-656-1063-917 0-485 474-587 621-619z"/>
<path id="ad" transform="scale(.015625)" d="m979 2138c378 0 525-13 679-70 396-141 646-506 646-948 0-537-365-953-838-953-173 0-301 45-538 198-192 115-301 160-410 160-147 0-243-89-243-224 0-224 275-365 723-365 493 0 999 167 1300 429 300 263 467 634 467 1063 0 326-103 627-288 825-128 141-250 218-531 339 441 301 601 538 601 884 0 518-409 876-998 876-320 0-602-108-832-313-192-173-288-340-429-724l96-25c262 467 550 678 954 678 416 0 704-281 704-684 0-231-96-461-256-621-192-192-372-288-807-442v-83z"/>
</defs>
<use transform="scale(.99626)" xlink:href="#k"/>
<use transform="translate(71.93) scale(.99626)" xlink:href="#ab"/>
<use transform="translate(121.74) scale(.99626)" xlink:href="#k"/>
<use transform="translate(218.58) scale(.99626)" xlink:href="#n"/>
<use transform="translate(268.39) scale(.99626)" xlink:href="#u"/>
<use transform="translate(318.21) scale(.99626)" xlink:href="#o"/>
<use transform="translate(368.02) scale(.99626)" xlink:href="#g"/>
<use transform="translate(412.25) scale(.99626)" xlink:href="#i"/>
<use transform="translate(439.95) scale(.99626)" xlink:href="#m"/>
<use transform="translate(509.09) scale(.99626)" xlink:href="#r"/>
<use transform="translate(542.26) scale(.99626)" xlink:href="#ag"/>
<use transform="translate(588.93) scale(.99626)" xlink:href="#l"/>
<use transform="translate(645.12) scale(.99626)" xlink:href="#x"/>
<use transform="translate(694.94) scale(.99626)" xlink:href="#y"/>
<use transform="translate(744.75) scale(.99626)" xlink:href="#af"/>
<use transform="translate(790.7) scale(.99626)" xlink:href="#l"/>
<use transform="translate(846.89) scale(.99626)" xlink:href="#ad"/>
<use transform="translate(896.7) scale(.99626)" xlink:href="#p"/>
<use transform="translate(946.51) scale(.99626)" xlink:href="#q"/>
</g>
<path d="m50.941 71.534h10 10" fill="none" stroke="#ff7f0e" stroke-linecap="square" stroke-width="1.2"/>
<use x="60.941485" y="71.533917" fill="#ff7f0e" stroke="#ff7f0e" xlink:href="#b"/>
<g transform="translate(78.941 75.034) scale(.1 -.1)">
<use transform="scale(.99626)" xlink:href="#k"/>
<use transform="translate(71.93) scale(.99626)" xlink:href="#ab"/>
<use transform="translate(121.74) scale(.99626)" xlink:href="#k"/>
<use transform="translate(218.58) scale(.99626)" xlink:href="#n"/>
<use transform="translate(268.39) scale(.99626)" xlink:href="#u"/>
<use transform="translate(318.21) scale(.99626)" xlink:href="#o"/>
<use transform="translate(368.02) scale(.99626)" xlink:href="#g"/>
<use transform="translate(412.25) scale(.99626)" xlink:href="#i"/>
<use transform="translate(439.95) scale(.99626)" xlink:href="#m"/>
<use transform="translate(509.09) scale(.99626)" xlink:href="#r"/>
<use transform="translate(542.26) scale(.99626)" xlink:href="#ag"/>
<use transform="translate(588.93) scale(.99626)" xlink:href="#l"/>
<use transform="translate(645.12) scale(.99626)" xlink:href="#at"/>
<use transform="translate(694.94) scale(.99626)" xlink:href="#y"/>
<use transform="translate(744.75) scale(.99626)" xlink:href="#af"/>
<use transform="translate(790.7) scale(.99626)" xlink:href="#l"/>
<use transform="translate(846.89) scale(.99626)" xlink:href="#ad"/>
<use transform="translate(896.7) scale(.99626)" xlink:href="#p"/>
<use transform="translate(946.51) scale(.99626)" xlink:href="#q"/>
</g>
<path d="m50.941 83.191h10 10" fill="none" stroke="#2ca02c" stroke-linecap="square" stroke-width="1.2"/>
<use x="60.941485" y="83.190746" fill="#2ca02c" stroke="#2ca02c" xlink:href="#e"/>
<g transform="translate(78.941 86.691) scale(.1 -.1)">
<use transform="scale(.99626)" xlink:href="#k"/>
<use transform="translate(71.93) scale(.99626)" xlink:href="#ab"/>
<use transform="translate(121.74) scale(.99626)" xlink:href="#k"/>
<use transform="translate(218.58) scale(.99626)" xlink:href="#n"/>
<use transform="translate(268.39) scale(.99626)" xlink:href="#u"/>
<use transform="translate(318.21) scale(.99626)" xlink:href="#o"/>
<use transform="translate(368.02) scale(.99626)" xlink:href="#g"/>
<use transform="translate(412.25) scale(.99626)" xlink:href="#i"/>
<use transform="translate(439.95) scale(.99626)" xlink:href="#m"/>
<use transform="translate(509.09) scale(.99626)" xlink:href="#r"/>
<use transform="translate(542.26) scale(.99626)" xlink:href="#ag"/>
<use transform="translate(588.93) scale(.99626)" xlink:href="#l"/>
<use transform="translate(645.12) scale(.99626)" xlink:href="#as"/>
<use transform="translate(694.94) scale(.99626)" xlink:href="#y"/>
<use transform="translate(744.75) scale(.99626)" xlink:href="#af"/>
<use transform="translate(790.7) scale(.99626)" xlink:href="#l"/>
<use transform="translate(846.89) scale(.99626)" xlink:href="#ad"/>
<use transform="translate(896.7) scale(.99626)" xlink:href="#p"/>
<use transform="translate(946.51) scale(.99626)" xlink:href="#q"/>
</g>
<path d="m50.941 94.848h10 10" fill="none" stroke="#d62728" stroke-linecap="square" stroke-width="1.2"/>
<use x="60.941485" y="94.847575" fill="#d62728" stroke="#d62728" xlink:href="#a"/>
<g transform="translate(78.941 98.348) scale(.1 -.1)">
<use transform="scale(.99626)" xlink:href="#k"/>
<use transform="translate(71.93) scale(.99626)" xlink:href="#ab"/>
<use transform="translate(121.74) scale(.99626)" xlink:href="#k"/>
<use transform="translate(218.58) scale(.99626)" xlink:href="#n"/>
<use transform="translate(268.39) scale(.99626)" xlink:href="#u"/>
<use transform="translate(318.21) scale(.99626)" xlink:href="#o"/>
<use transform="translate(368.02) scale(.99626)" xlink:href="#g"/>
<use transform="translate(412.25) scale(.99626)" xlink:href="#i"/>
<use transform="translate(439.95) scale(.99626)" xlink:href="#m"/>
<use transform="translate(509.09) scale(.99626)" xlink:href="#r"/>
<use transform="translate(542.26) scale(.99626)" xlink:href="#ag"/>
<use transform="translate(588.93) scale(.99626)" xlink:href="#l"/>
<use transform="translate(645.12) scale(.99626)" xlink:href="#x"/>
<use transform="translate(694.94) scale(.99626)" xlink:href="#aj"/>
<use transform="translate(744.75) scale(.99626)" xlink:href="#y"/>
<use transform="translate(794.56) scale(.99626)" xlink:href="#af"/>
<use transform="translate(840.51) scale(.99626)" xlink:href="#l"/>
<use transform="translate(896.7) scale(.99626)" xlink:href="#ad"/>
<use transform="translate(946.51) scale(.99626)" xlink:href="#p"/>
<use transform="translate(996.33) scale(.99626)" xlink:href="#q"/>
</g>
<path d="m50.941 106.5h10 10" fill="none" stroke="#9467bd" stroke-linecap="square" stroke-width="1.2"/>
<use x="60.941485" y="106.504404" fill="#9467bd" stroke="#9467bd" xlink:href="#d"/>
<g transform="translate(78.941 110) scale(.1 -.1)">
<use transform="scale(.99626)" xlink:href="#k"/>
<use transform="translate(71.93) scale(.99626)" xlink:href="#ab"/>
<use transform="translate(121.74) scale(.99626)" xlink:href="#k"/>
<use transform="translate(218.58) scale(.99626)" xlink:href="#n"/>
<use transform="translate(268.39) scale(.99626)" xlink:href="#u"/>
<use transform="translate(318.21) scale(.99626)" xlink:href="#o"/>
<use transform="translate(368.02) scale(.99626)" xlink:href="#g"/>
<use transform="translate(412.25) scale(.99626)" xlink:href="#i"/>
<use transform="translate(439.95) scale(.99626)" xlink:href="#m"/>
<use transform="translate(509.09) scale(.99626)" xlink:href="#r"/>
<use transform="translate(542.26) scale(.99626)" xlink:href="#ag"/>
<use transform="translate(588.93) scale(.99626)" xlink:href="#l"/>
<use transform="translate(645.12) scale(.99626)" xlink:href="#ad"/>
<use transform="translate(694.94) scale(.99626)" xlink:href="#p"/>
<use transform="translate(744.75) scale(.99626)" xlink:href="#y"/>
<use transform="translate(794.56) scale(.99626)" xlink:href="#af"/>
<use transform="translate(840.51) scale(.99626)" xlink:href="#l"/>
<use transform="translate(896.7) scale(.99626)" xlink:href="#x"/>
<use transform="translate(946.51) scale(.99626)" xlink:href="#aj"/>
<use transform="translate(996.33) scale(.99626)" xlink:href="#q"/>
</g>
<defs>
<clipPath id="h">
<rect x="43.441" y="37.22" width="233.76" height="211.16"/>
</clipPath>
</defs>
</svg>
