<?xml version="1.0" encoding="UTF-8"?>
<!DOCTYPE svg  PUBLIC '-//W3C//DTD SVG 1.1//EN'  'http://www.w3.org/Graphics/SVG/1.1/DTD/svg11.dtd'>
<svg width="576pt" height="288pt" version="1.1" viewBox="0 0 576 288" xmlns="http://www.w3.org/2000/svg" xmlns:xlink="http://www.w3.org/1999/xlink">
<metadata>
<rdf:RDF xmlns:cc="http://creativecommons.org/ns#" xmlns:dc="http://purl.org/dc/elements/1.1/" xmlns:rdf="http://www.w3.org/1999/02/22-rdf-syntax-ns#">
<cc:Work>
<dc:type rdf:resource="http://purl.org/dc/dcmitype/StillImage"/>
<dc:date>2025-03-26T07:40:35.179368</dc:date>
<dc:format>image/svg+xml</dc:format>
<dc:creator>
<cc:Agent>
<dc:title>Matplotlib v3.9.2, https://matplotlib.org/</dc:title>
</cc:Agent>
</dc:creator>
</cc:Work>
</rdf:RDF>
</metadata>
<defs>
<style type="text/css">*{stroke-linejoin: round; stroke-linecap: butt}</style>
</defs>
<path d="m0 288h576v-288h-576z" fill="#fff"/>
<path d="m50.872 248.38h250.01v-201.98h-250.01z" fill="#fff"/>
<defs>
<path id="ab" d="m0 0v3.5" stroke="#000" stroke-width=".8"/>
</defs>
<use x="84.964799" y="248.377187" stroke="#000000" stroke-width=".8" xlink:href="#ab"/>
<g transform="translate(82.474 262.13) scale(.1 -.1)">
<defs>
<path id="s" transform="scale(.015625)" d="m3040 875-83 32c-237-363-320-421-608-421h-1530l1075 1123c570 593 820 1078 820 1576 0 638-519 1128-1184 1128-352 0-685-140-922-395-205-218-301-422-410-875l135-32c256 625 486 829 928 829 537 0 902-364 902-900 0-497-294-1090-832-1658l-1139-1205v-77h2496l352 875z"/>
</defs>
<use transform="scale(.99626)" xlink:href="#s"/>
</g>
<use x="130.421892" y="248.377187" stroke="#000000" stroke-width=".8" xlink:href="#ab"/>
<g transform="translate(127.93 262.13) scale(.1 -.1)">
<defs>
<path id="ak" transform="scale(.015625)" d="m1856 2400c634 340 858 608 858 1044 0 524-461 908-1101 908-698 0-1216-428-1216-1011 0-416 121-601 793-1190-691-525-832-723-832-1159 0-620 506-1056 1229-1056 768 0 1261 423 1261 1082 0 493-218 806-992 1382zm-115-659c467-333 621-563 621-921 0-416-288-704-704-704-487 0-813 371-813 928 0 409 141 678 512 979l384-282zm-71 775c-569 371-800 665-800 1024 0 371 288 633 692 633 435 0 710-281 710-723 0-365-179-653-544-896-32-19-32-19-58-38z"/>
</defs>
<use transform="scale(.99626)" xlink:href="#ak"/>
</g>
<use x="175.878985" y="248.377187" stroke="#000000" stroke-width=".8" xlink:href="#ab"/>
<g transform="translate(170.9 262.13) scale(.1 -.1)">
<defs>
<path id="ah" transform="scale(.015625)" d="m979 2138c378 0 525-13 679-70 396-141 646-506 646-948 0-537-365-953-838-953-173 0-301 45-538 198-192 115-301 160-410 160-147 0-243-89-243-224 0-224 275-365 723-365 493 0 999 167 1300 429 300 263 467 634 467 1063 0 326-103 627-288 825-128 141-250 218-531 339 441 301 601 538 601 884 0 518-409 876-998 876-320 0-602-108-832-313-192-173-288-340-429-724l96-25c262 467 550 678 954 678 416 0 704-281 704-684 0-231-96-461-256-621-192-192-372-288-807-442v-83z"/>
</defs>
<use transform="scale(.99626)" xlink:href="#ah"/>
<use transform="translate(49.813) scale(.99626)" xlink:href="#s"/>
</g>
<use x="221.336078" y="248.377187" stroke="#000000" stroke-width=".8" xlink:href="#ab"/>
<g transform="translate(213.86 262.13) scale(.1 -.1)">
<defs>
<path id="ad" transform="scale(.015625)" d="m1862 4339-1152-582v-90c77 32 148 58 173 71 115 45 224 70 288 70 135 0 192-97 192-303v-2913c0-213-51-360-153-419-96-57-186-77-455-77v-96h1767v96c-506 0-608 64-608 374v3857l-52 12z"/>
</defs>
<use transform="scale(.99626)" xlink:href="#ad"/>
<use transform="translate(49.813) scale(.99626)" xlink:href="#s"/>
<use transform="translate(99.626) scale(.99626)" xlink:href="#ak"/>
</g>
<use x="266.79317" y="248.377187" stroke="#000000" stroke-width=".8" xlink:href="#ab"/>
<g transform="translate(259.32 262.13) scale(.1 -.1)">
<defs>
<path id="as" transform="scale(.015625)" d="m1158 3776h1255c102 0 128 13 147 58l243 569-57 45c-96-134-160-166-295-166h-1337l-698-1523c-6-13-6-19-6-32 0-32 25-51 76-51 205 0 461-45 724-129 736-238 1075-637 1075-1273 0-618-391-1101-890-1101-128 0-237 45-429 187-204 148-352 212-486 212-186 0-275-77-275-238 0-244 301-398 781-398 537 0 998 174 1318 502 294 290 429 656 429 1145 0 463-122 759-442 1080-281 284-646 431-1401 566l268 547z"/>
</defs>
<use transform="scale(.99626)" xlink:href="#as"/>
<use transform="translate(49.813) scale(.99626)" xlink:href="#ad"/>
<use transform="translate(99.626) scale(.99626)" xlink:href="#s"/>
</g>
<g transform="translate(134.42 275.04) scale(.1 -.1)">
<defs>
<path id="aq" transform="scale(.015625)" d="m4314 3667v-2916c0-534-77-617-583-617v-134h1792v134c-467 0-557 89-557 547v2855c0 457 84 541 557 579v122h-1273l-1415-3233-1478 3233h-1267v-141c524 0 608-77 608-546v-2607c0-661-90-784-621-822v-121h1504v134c-493 0-602 148-602 797v2589l1607-3520h89l1639 3667z"/>
<path id="i" transform="scale(.015625)" d="m1600 2944c-832 0-1414-614-1414-1498 0-864 595-1510 1401-1510 807 0 1421 678 1421 1562 0 838-589 1446-1408 1446zm-83-179c537 0 915-615 915-1491 0-724-288-1159-768-1159-250 0-486 154-621 410-179 333-281 781-281 1235 0 608 300 1005 755 1005z"/>
<path id="v" transform="scale(.015625)" d="m2202-64 940 333v96h-147c-230 0-281 70-281 366v3633l-32 13c-308-109-532-173-941-281v-102c51 6 89 6 141 6 236 0 294-64 294-328v-1003c-243 205-416 275-672 275-736 0-1331-723-1331-1632 0-819 480-1376 1184-1376 358 0 601 128 819 429v-410l26-19zm-26 717c0-45-45-122-109-192-115-128-275-192-461-192-531 0-883 512-883 1299 0 723 314 1197 800 1197 339 0 653-301 653-640v-1472z"/>
<path id="m" transform="scale(.015625)" d="m1120 2929-992-350v-95l51 6c77 12 160 19 218 19 153 0 211-103 211-384v-1485c0-461-64-531-506-531v-109h1517v96c-422 32-473 95-473 554v2260l-26 19zm-301 1423c-173 0-320-147-320-326s141-327 320-327c186 0 333 141 333 327 0 179-147 326-333 326z"/>
<path id="ay" transform="scale(.015625)" d="m198 2669h436v-2103c0-418-71-502-429-502v-102h1408v96c-359 26-442 117-442 474v2137h551c614 0 646-19 646-364v-1714c0-442-45-501-442-533v-96h1408v96c-358 32-428 117-428 532v1699c0 142 0 292 12 635l-25 19c-282-44-467-63-723-63h-1005v271c0 278 19 473 51 581 90 271 339 460 627 460 179 0 301-82 455-297 121-169 204-232 313-232 135 0 231 107 231 246 0 266-320 443-813 443-487 0-858-164-1088-474-192-259-263-493-301-998h-442v-211z"/>
<path id="aa" transform="scale(.015625)" d="m2547 998c-307-448-537-601-902-601-583 0-992 512-992 1248 0 659 352 1113 870 1113 231 0 314-70 378-307l38-141c51-179 167-294 301-294 166 0 307 122 307 269 0 358-448 659-985 659-314 0-640-128-903-358-320-282-499-717-499-1223 0-832 506-1427 1216-1427 288 0 544 102 774 301 173 153 295 326 487 704l-90 57z"/>
<path id="h" transform="scale(.015625)" d="m2829 423c-109-90-186-122-282-122-147 0-192 89-192 371v1248c0 333-32 518-128 672-141 230-416 352-793 352-602 0-1076-314-1076-717 0-147 128-275 276-275 153 0 288 128 288 269 0 25-7 57-13 102-13 58-19 109-19 154 0 173 204 313 460 313 314 0 487-185 487-531v-390c-986-397-1095-448-1370-691-141-128-230-346-230-557 0-403 281-685 672-685 281 0 544 134 934 467 32-333 147-467 410-467 217 0 352 77 576 320v167zm-992 360c0-199-32-257-167-334-153-90-332-148-467-148-224 0-403 219-403 495v26c0 379 262 611 1037 893v-932z"/>
<path id="g" transform="scale(.015625)" d="m1632 2880h-646v742c0 64-7 84-45 84-45-58-83-116-128-180-243-352-519-659-621-685-70-47-109-93-109-126 0-20 7-33 26-33h339v-1931c0-539 192-815 570-815 313 0 556 154 768 487l-84 70c-134-160-243-224-384-224-236 0-332 174-332 578v1835h646v198z"/>
<path id="q" transform="scale(.015625)" d="m102 2579c39 19 103 26 173 26 179 0 237-96 237-410v-1587c0-365-70-454-397-480v-96h1357v96c-326 26-422 102-422 333v1798c307 288 448 365 659 365 313 0 467-198 467-621v-1337c0-404-83-512-403-538v-96h1331v96c-314 32-390 109-390 422v1466c0 602-282 960-756 960-294 0-492-109-928-518v505l-44 13c-314-115-532-186-884-288v-109z"/>
<path id="z" transform="scale(.015625)" d="m45 2496c89 19 147 26 224 26 160 0 217-103 217-384v-1600c0-320-44-365-454-442v-96h1536v102c-435 0-544 97-544 463v1448c0 206 275 528 448 528 38 0 96-32 166-96 103-90 173-128 256-128 154 0 250 109 250 288 0 211-134 339-352 339-269 0-454-147-768-601v588l-32 13c-339-141-570-223-947-345v-103z"/>
<path id="au" transform="scale(.015625)" d="m45 3987c83 7 141 13 205 13 211 0 275-83 275-390v-3085c0-333-19-352-480-429v-96h1497v102h-128c-256 0-352 91-352 317v1187l896-1191 20-26c12-19 25-38 44-58 52-64 71-102 71-133 0-58-58-96-135-96h-121v-102h1395v102c-282 0-480 123-749 451l-979 1252 186 173c454 422 851 716 1036 768 96 25 186 38 295 38h51v96h-1306v-96c250 0 320-26 320-115 0-51-57-141-147-218l-877-781v2688l-25 13c-243-77-429-128-800-230l-192-51v-103z"/>
<path id="bb" transform="scale(.015625)" d="m1318 1871c13 39 173 358 410 562 166 153 384 256 634 256 256 0 345-192 345-447 0-39 0-166-77-467l-160-657c-51-192-172-665-185-735-26-96-64-262-64-287 0-90 70-160 166-160 192 0 224 147 282 377l384 1526c13 51 345 850 1049 850 256 0 346-192 346-447 0-358-250-1054-390-1437-58-154-90-237-90-352 0-287 198-517 506-517 595 0 819 939 819 977 0 32-26 58-64 58-58 0-64-19-96-128-147-511-384-779-640-779-64 0-167 0-167 205 0 167 77 371 103 441 115 308 403 1063 403 1435 0 383-224 671-710 671-429 0-775-242-1031-619-19 345-230 619-710 619-570 0-871-401-986-561-19 363-281 561-563 561-186 0-333-89-454-332-116-230-205-619-205-645 0-25 25-57 70-57 51 0 58 6 96 153 96 377 218 754 474 754 147 0 198-103 198-294 0-141-64-390-109-588l-179-689c-25-122-96-409-128-524-45-166-115-466-115-498 0-90 70-160 166-160 77 0 167 38 218 134 13 32 70 256 102 383l141 575 211 843z"/>
</defs>
<use transform="scale(.99626)" xlink:href="#aq"/>
<use transform="translate(88.567) scale(.99626)" xlink:href="#i"/>
<use transform="translate(138.38) scale(.99626)" xlink:href="#v"/>
<use transform="translate(188.19) scale(.99626)" xlink:href="#m"/>
<use transform="translate(215.89) scale(.99626)" xlink:href="#ay"/>
<use transform="translate(271.28) scale(.99626)" xlink:href="#aa"/>
<use transform="translate(315.51) scale(.99626)" xlink:href="#h"/>
<use transform="translate(359.75) scale(.99626)" xlink:href="#g"/>
<use transform="translate(387.44) scale(.99626)" xlink:href="#m"/>
<use transform="translate(415.14) scale(.99626)" xlink:href="#i"/>
<use transform="translate(464.95) scale(.99626)" xlink:href="#q"/>
<use transform="translate(539.67) scale(.99626)" xlink:href="#z"/>
<use transform="translate(572.85) scale(.99626)" xlink:href="#h"/>
<use transform="translate(617.08) scale(.99626)" xlink:href="#q"/>
<use transform="translate(666.89) scale(.99626)" xlink:href="#au"/>
<use transform="translate(741.61) scale(.99626)" xlink:href="#bb"/>
</g>
<defs>
<path id="ag" d="m0 0h-3.5" stroke="#000" stroke-width=".8"/>
</defs>
<use x="50.87198" y="243.019954" stroke="#000000" stroke-width=".8" xlink:href="#ag"/>
<g transform="translate(23.711 246.4) scale(.1 -.1)">
<defs>
<path id="ai" transform="scale(.015625)" d="m1702 4058c0 134-6 134-96 134-249-276-627-365-985-365-19 0-51 0-58-19-6-13-6-26-6-160 198 0 531 38 787 191v-3378c0-225-13-301-563-301h-192v-160h934 935v160h-192c-551 0-564 70-564 298v3600z"/>
<path id="am" transform="scale(.015625)" d="m2688 2025c0 391-6 1055-275 1566-237 448-615 607-947 607-308 0-698-140-941-601-256-479-282-1073-282-1572 0-364 7-919 205-1406 275-658 768-747 1018-747 294 0 742 121 1004 728 192 442 218 959 218 1425zm-1222-2051c-410 0-653 351-743 838-70 376-70 926-70 1284 0 492 0 901 83 1291 122 542 480 709 730 709 262 0 601-173 723-696 83-364 89-793 89-1304 0-416 0-927-76-1304-135-697-512-818-736-818z"/>
<path id="az" transform="scale(.015625)" d="m4218 1472c108 0 224 0 224 128s-116 128-224 128h-3463c-109 0-224 0-224-128s115-128 224-128h3463z"/>
<path id="ba" transform="scale(.015625)" d="m2669 989h-115c-64-453-116-530-141-569-32-51-493-51-583-51h-1228c230 250 678 703 1222 1228 390 370 845 805 845 1438 0 755-602 1189-1274 1189-704 0-1133-620-1133-1194 0-250 186-282 263-282 64 0 256 39 256 262 0 197-167 254-256 254-39 0-77-6-103-19 122 545 493 813 884 813 556 0 921-441 921-1023 0-556-326-1035-691-1451l-1274-1438v-146h2253l154 989z"/>
</defs>
<use transform="scale(.99626)" xlink:href="#ai"/>
<use transform="translate(45.69) scale(.99626)" xlink:href="#am"/>
<use transform="translate(91.381 36.154) scale(.69738)" xlink:href="#az"/>
<use transform="translate(145.62 36.154) scale(.69738)" xlink:href="#ba"/>
</g>
<use x="50.87198" y="186.643845" stroke="#000000" stroke-width=".8" xlink:href="#ag"/>
<g transform="translate(23.711 190.02) scale(.1 -.1)">
<use transform="scale(.99626)" xlink:href="#ai"/>
<use transform="translate(45.69) scale(.99626)" xlink:href="#am"/>
<use transform="translate(91.381 36.154) scale(.69738)" xlink:href="#az"/>
<use transform="translate(145.62 36.154) scale(.69738)" xlink:href="#ai"/>
</g>
<use x="50.87198" y="130.267737" stroke="#000000" stroke-width=".8" xlink:href="#ag"/>
<g transform="translate(29.938 133.65) scale(.1 -.1)">
<use transform="scale(.99626)" xlink:href="#ai"/>
<use transform="translate(45.69) scale(.99626)" xlink:href="#am"/>
<use transform="translate(91.381 36.154) scale(.69738)" xlink:href="#am"/>
</g>
<use x="50.87198" y="73.891629" stroke="#000000" stroke-width=".8" xlink:href="#ag"/>
<g transform="translate(29.938 77.269) scale(.1 -.1)">
<use transform="scale(.99626)" xlink:href="#ai"/>
<use transform="translate(45.69) scale(.99626)" xlink:href="#am"/>
<use transform="translate(91.381 36.154) scale(.69738)" xlink:href="#ai"/>
</g>
<defs>
<path id="a" d="m0 0h-2" stroke="#000" stroke-width=".6"/>
</defs>
<use x="50.87198" y="245.599583" stroke="#000000" stroke-width=".6" xlink:href="#a"/>
<use x="50.87198" y="226.049054" stroke="#000000" stroke-width=".6" xlink:href="#a"/>
<use x="50.87198" y="216.121714" stroke="#000000" stroke-width=".6" xlink:href="#a"/>
<use x="50.87198" y="209.078155" stroke="#000000" stroke-width=".6" xlink:href="#a"/>
<use x="50.87198" y="203.614745" stroke="#000000" stroke-width=".6" xlink:href="#a"/>
<use x="50.87198" y="199.150815" stroke="#000000" stroke-width=".6" xlink:href="#a"/>
<use x="50.87198" y="195.376615" stroke="#000000" stroke-width=".6" xlink:href="#a"/>
<use x="50.87198" y="192.107255" stroke="#000000" stroke-width=".6" xlink:href="#a"/>
<use x="50.87198" y="189.223475" stroke="#000000" stroke-width=".6" xlink:href="#a"/>
<use x="50.87198" y="169.672946" stroke="#000000" stroke-width=".6" xlink:href="#a"/>
<use x="50.87198" y="159.745606" stroke="#000000" stroke-width=".6" xlink:href="#a"/>
<use x="50.87198" y="152.702046" stroke="#000000" stroke-width=".6" xlink:href="#a"/>
<use x="50.87198" y="147.238637" stroke="#000000" stroke-width=".6" xlink:href="#a"/>
<use x="50.87198" y="142.774706" stroke="#000000" stroke-width=".6" xlink:href="#a"/>
<use x="50.87198" y="139.000507" stroke="#000000" stroke-width=".6" xlink:href="#a"/>
<use x="50.87198" y="135.731147" stroke="#000000" stroke-width=".6" xlink:href="#a"/>
<use x="50.87198" y="132.847366" stroke="#000000" stroke-width=".6" xlink:href="#a"/>
<use x="50.87198" y="113.296838" stroke="#000000" stroke-width=".6" xlink:href="#a"/>
<use x="50.87198" y="103.369498" stroke="#000000" stroke-width=".6" xlink:href="#a"/>
<use x="50.87198" y="96.325938" stroke="#000000" stroke-width=".6" xlink:href="#a"/>
<use x="50.87198" y="90.862528" stroke="#000000" stroke-width=".6" xlink:href="#a"/>
<use x="50.87198" y="86.398598" stroke="#000000" stroke-width=".6" xlink:href="#a"/>
<use x="50.87198" y="82.624399" stroke="#000000" stroke-width=".6" xlink:href="#a"/>
<use x="50.87198" y="79.355038" stroke="#000000" stroke-width=".6" xlink:href="#a"/>
<use x="50.87198" y="76.471258" stroke="#000000" stroke-width=".6" xlink:href="#a"/>
<use x="50.87198" y="56.920729" stroke="#000000" stroke-width=".6" xlink:href="#a"/>
<use x="50.87198" y="46.993389" stroke="#000000" stroke-width=".6" xlink:href="#a"/>
<g transform="translate(17.555 241.91) rotate(-90) scale(.1 -.1)">
<defs>
<path id="bk" transform="scale(.015625)" d="m3968 2906-58 1446h-134c-38-134-141-211-269-211-57 0-153 19-249 58-314 102-634 153-935 153-525 0-1056-198-1453-550-448-397-691-992-691-1696 0-595 192-1146 519-1510 384-416 972-660 1606-660 723 0 1357 295 1747 813l-115 115c-474-454-896-646-1427-646-403 0-762 128-1037 371-352 314-550 890-550 1600 0 1159 595 1907 1523 1907 365 0 697-134 953-390 205-205 301-384 423-800h147z"/>
<path id="aj" transform="scale(.015625)" d="m122 2547c83 19 134 26 204 26 167 0 224-103 224-411v-1623c0-347-89-443-448-443v-96h1421v96c-339 0-435 70-435 322v1816c0 12 51 76 96 121 160 147 435 256 659 256 282 0 423-226 423-679v-1404c0-361-71-432-436-432v-96h1434v96c-365 0-461 109-461 507v1618c192 275 403 390 698 390 365 0 480-173 480-704v-1350c0-365-51-416-423-461v-96h1402v96l-166 19c-192 0-276 115-276 365v1322c0 757-249 1142-742 1142-371 0-698-166-1043-537-115 364-333 537-679 537-281 0-460-90-992-493v480l-44 13c-327-122-544-192-896-288v-109z"/>
<path id="p" transform="scale(.015625)" d="m58 2516c57 6 102 6 160 6 217 0 262-64 262-367v-3010c0-334-70-406-448-444v-109h1549v115c-480 0-563 71-563 477v1015c224-212 377-276 646-276 755 0 1344 720 1344 1652 0 797-448 1369-1069 1369-358 0-640-160-921-506v493l-39 13c-345-134-569-218-921-326v-102zm960-380c0 193 358 424 652 424 474 0 788-489 788-1236 0-713-314-1196-775-1196-301 0-665 231-665 424v1584z"/>
<path id="o" transform="scale(.015625)" d="m3066 320h-32c-295 0-365 70-365 365v2195h-1011v-122c396 0 473-64 473-383v-1500c0-178-32-268-121-338-173-140-372-217-564-217-249 0-454 217-454 485v2075h-934v-102c307 0 396-96 396-391v-1617c0-507 308-834 775-834 237 0 486 102 659 275l275 275v-531l26-13c320 128 550 199 877 288v90z"/>
<path id="u" transform="scale(.015625)" d="m122 4e3h38 198c205 0 269-90 269-390v-3053c0-346-89-429-493-461v-96h1511v109c-403 0-480 64-480 419v3843l-26 13c-333-109-576-173-1017-281v-103z"/>
<path id="ap" transform="scale(.015625)" d="m2016 2010-26 870h-70l-13-13c-57-45-64-51-89-51-39 0-103 13-173 45-141 54-282 83-448 83-506 0-871-328-871-790 0-358 205-615 749-923l371-211c224-128 333-283 333-481 0-283-205-462-531-462-218 0-416 82-538 221-134 157-192 302-275 662h-102v-999h83c45 72 70 87 147 87 58 0 147-13 295-50 179-37 352-62 467-62 493 0 902 372 902 821 0 320-153 532-537 763l-692 410c-179 103-275 264-275 437 0 257 199 436 493 436 365 0 557-220 704-793h96z"/>
<path id="l" transform="scale(.015625)" d="m2611 1053c-307-489-582-675-992-675-365 0-640 186-825 552-116 244-160 456-173 849h1971c-51 414-115 598-275 802-192 230-487 363-819 363-320 0-621-115-864-333-301-262-474-717-474-1241 0-884 461-1434 1197-1434 608 0 1088 379 1357 1072l-103 45zm-1977 931c70 495 288 730 678 730s544-179 627-730h-1305z"/>
<path id="at" transform="scale(.015625)" d="m3053 2854h-890v-96c205-19 301-83 301-206 0-64-13-128-38-193l-634-1664-653 1645c-38 91-57 180-57 238 0 116 70 161 294 180v96h-1254v-102c243 0 288-64 582-728l768-1849c13-38 32-84 51-135 39-116 77-168 115-168 39 0 84 84 180 321l819 2064c185 437 224 482 416 501v96z"/>
<path id="af" transform="scale(.015625)" d="m1978 2880h-788v731c0 367 122 562 365 562 135 0 224-63 339-246 103-164 180-227 288-227 148 0 269 114 269 259 0 229-281 393-665 393-397 0-736-171-903-461-166-278-217-506-224-1011h-525v-205h525v-2019c0-471-70-547-531-547v-109h1664v109c-525 0-595 71-595 552v2014h781v205z"/>
<path id="ao" transform="scale(.015625)" d="m2675 864-115 26c-64-320-102-423-186-532-89-108-307-166-633-166h-883l1721 2592v96h-2221l-19-755h115c58 467 154 563 538 563h883l-1702-2592v-96h2413l89 864z"/>
</defs>
<use transform="scale(.99626)" xlink:href="#bk"/>
<use transform="translate(66.45) scale(.99626)" xlink:href="#i"/>
<use transform="translate(116.26) scale(.99626)" xlink:href="#aj"/>
<use transform="translate(193.77) scale(.99626)" xlink:href="#p"/>
<use transform="translate(243.58) scale(.99626)" xlink:href="#o"/>
<use transform="translate(293.4) scale(.99626)" xlink:href="#g"/>
<use transform="translate(321.09) scale(.99626)" xlink:href="#h"/>
<use transform="translate(365.33) scale(.99626)" xlink:href="#g"/>
<use transform="translate(393.02) scale(.99626)" xlink:href="#m"/>
<use transform="translate(420.72) scale(.99626)" xlink:href="#i"/>
<use transform="translate(470.53) scale(.99626)" xlink:href="#q"/>
<use transform="translate(520.34) scale(.99626)" xlink:href="#h"/>
<use transform="translate(564.58) scale(.99626)" xlink:href="#u"/>
<use transform="translate(617.18) scale(.99626)" xlink:href="#aa"/>
<use transform="translate(661.41) scale(.99626)" xlink:href="#i"/>
<use transform="translate(711.23) scale(.99626)" xlink:href="#ap"/>
<use transform="translate(749.98) scale(.99626)" xlink:href="#g"/>
<use transform="translate(802.58) scale(.99626)" xlink:href="#z"/>
<use transform="translate(835.76) scale(.99626)" xlink:href="#l"/>
<use transform="translate(879.99) scale(.99626)" xlink:href="#u"/>
<use transform="translate(907.69) scale(.99626)" xlink:href="#h"/>
<use transform="translate(951.92) scale(.99626)" xlink:href="#g"/>
<use transform="translate(979.61) scale(.99626)" xlink:href="#m"/>
<use transform="translate(1004.8) scale(.99626)" xlink:href="#at"/>
<use transform="translate(1053.1) scale(.99626)" xlink:href="#l"/>
<use transform="translate(1122.3) scale(.99626)" xlink:href="#g"/>
<use transform="translate(1150) scale(.99626)" xlink:href="#i"/>
<use transform="translate(1224.7) scale(.99626)" xlink:href="#af"/>
<use transform="translate(1257.9) scale(.99626)" xlink:href="#o"/>
<use transform="translate(1307.7) scale(.99626)" xlink:href="#u"/>
<use transform="translate(1335.4) scale(.99626)" xlink:href="#u"/>
<use transform="translate(1388) scale(.99626)" xlink:href="#af"/>
<use transform="translate(1420.2) scale(.99626)" xlink:href="#h"/>
<use transform="translate(1464.4) scale(.99626)" xlink:href="#aa"/>
<use transform="translate(1508.6) scale(.99626)" xlink:href="#g"/>
<use transform="translate(1536.3) scale(.99626)" xlink:href="#i"/>
<use transform="translate(1586.1) scale(.99626)" xlink:href="#z"/>
<use transform="translate(1619.3) scale(.99626)" xlink:href="#m"/>
<use transform="translate(1647) scale(.99626)" xlink:href="#ao"/>
<use transform="translate(1691.2) scale(.99626)" xlink:href="#h"/>
<use transform="translate(1735.5) scale(.99626)" xlink:href="#g"/>
<use transform="translate(1763.2) scale(.99626)" xlink:href="#m"/>
<use transform="translate(1790.9) scale(.99626)" xlink:href="#i"/>
<use transform="translate(1840.7) scale(.99626)" xlink:href="#q"/>
</g>
<path d="m62.236 130.27h22.729 13.295 9.4332 7.317 5.9784 5.0547 4.3785 3.8621 3.4548 3.1253 2.8531 2.6246 2.43 2.2623 2.1162 22.729 22.729 22.729 22.729 22.729 22.729" clip-path="url(#w)" fill="none" stroke="#1f77b4" stroke-linecap="square" stroke-width="1.2"/>
<defs>
<path id="b" d="m0 1.25c0.3315 0 0.64948-0.13171 0.88388-0.36612 0.23441-0.23441 0.36612-0.55238 0.36612-0.88388s-0.13171-0.64948-0.36612-0.88388c-0.23441-0.23441-0.55238-0.36612-0.88388-0.36612s-0.64948 0.13171-0.88388 0.36612c-0.23441 0.23441-0.36612 0.55238-0.36612 0.88388s0.13171 0.64948 0.36612 0.88388c0.23441 0.23441 0.55238 0.36612 0.88388 0.36612z" stroke="#1f77b4"/>
</defs>
<g clip-path="url(#w)" fill="#1f77b4" stroke="#1f77b4">
<use x="62.236253" y="130.267737" xlink:href="#b"/>
<use x="84.964799" y="130.267737" xlink:href="#b"/>
<use x="98.260147" y="130.267737" xlink:href="#b"/>
<use x="107.693346" y="130.267737" xlink:href="#b"/>
<use x="115.010303" y="130.267737" xlink:href="#b"/>
<use x="120.988693" y="130.267737" xlink:href="#b"/>
<use x="126.04335" y="130.267737" xlink:href="#b"/>
<use x="130.421892" y="130.267737" xlink:href="#b"/>
<use x="134.28404" y="130.267737" xlink:href="#b"/>
<use x="137.73885" y="130.267737" xlink:href="#b"/>
<use x="140.864105" y="130.267737" xlink:href="#b"/>
<use x="143.717239" y="130.267737" xlink:href="#b"/>
<use x="146.341869" y="130.267737" xlink:href="#b"/>
<use x="148.771896" y="130.267737" xlink:href="#b"/>
<use x="151.034197" y="130.267737" xlink:href="#b"/>
<use x="153.150439" y="130.267737" xlink:href="#b"/>
<use x="175.878985" y="130.267737" xlink:href="#b"/>
<use x="198.607531" y="130.267737" xlink:href="#b"/>
<use x="221.336078" y="130.267737" xlink:href="#b"/>
<use x="244.064624" y="130.267737" xlink:href="#b"/>
<use x="266.79317" y="130.267737" xlink:href="#b"/>
<use x="289.521717" y="130.267737" xlink:href="#b"/>
</g>
<path d="m62.236 239.2 22.729-9.8599 13.295-6.9743 9.4332-5.3936 7.317-4.3939 5.9784-3.7042 5.0547-3.1994 4.3785-2.8139 3.8621-2.5099 3.4548-2.264 3.1253-2.061 2.8531-1.8905 2.6246-1.7454 2.43-1.6203 2.2623-1.5114 2.1162-1.4158 22.729-15.168 22.729-14.584 22.729-13.193 22.729-10.971 22.729-8.1905 22.729-5.4396" clip-path="url(#w)" fill="none" stroke="#a9a9a9" stroke-linecap="square" stroke-width="1.2"/>
<defs>
<path id="k" d="m0 1.25c0.3315 0 0.64948-0.13171 0.88388-0.36612 0.23441-0.23441 0.36612-0.55238 0.36612-0.88388s-0.13171-0.64948-0.36612-0.88388c-0.23441-0.23441-0.55238-0.36612-0.88388-0.36612s-0.64948 0.13171-0.88388 0.36612c-0.23441 0.23441-0.36612 0.55238-0.36612 0.88388s0.13171 0.64948 0.36612 0.88388c0.23441 0.23441 0.55238 0.36612 0.88388 0.36612z" stroke="#a9a9a9"/>
</defs>
<g clip-path="url(#w)" fill="#a9a9a9" stroke="#a9a9a9">
<use x="62.236253" y="239.196368" xlink:href="#k"/>
<use x="84.964799" y="229.336461" xlink:href="#k"/>
<use x="98.260147" y="222.362119" xlink:href="#k"/>
<use x="107.693346" y="216.968517" xlink:href="#k"/>
<use x="115.010303" y="212.574587" xlink:href="#k"/>
<use x="120.988693" y="208.870411" xlink:href="#k"/>
<use x="126.04335" y="205.671014" xlink:href="#k"/>
<use x="130.421892" y="202.85709" xlink:href="#k"/>
<use x="134.28404" y="200.347182" xlink:href="#k"/>
<use x="137.73885" y="198.083194" xlink:href="#k"/>
<use x="140.864105" y="196.022231" xlink:href="#k"/>
<use x="143.717239" y="194.131717" xlink:href="#k"/>
<use x="146.341869" y="192.386335" xlink:href="#k"/>
<use x="148.771896" y="190.766012" xlink:href="#k"/>
<use x="151.034197" y="189.254569" xlink:href="#k"/>
<use x="153.150439" y="187.838773" xlink:href="#k"/>
<use x="175.878985" y="172.670563" xlink:href="#k"/>
<use x="198.607531" y="158.086617" xlink:href="#k"/>
<use x="221.336078" y="144.894015" xlink:href="#k"/>
<use x="244.064624" y="133.922678" xlink:href="#k"/>
<use x="266.79317" y="125.732182" xlink:href="#k"/>
<use x="289.521717" y="120.292624" xlink:href="#k"/>
</g>
<path d="m62.236 231.39 22.729-7.5325 13.295-5.7224 9.4332-4.6106 7.317-3.8577 5.9784-3.3139 5.0547-2.9025 4.3785-2.5805 3.8621-2.3216 3.4548-2.1088 3.1253-1.9309 2.8531-1.7799 2.6246-1.6502 2.43-1.5375 2.2623-1.4388 2.1162-1.3515 22.729-14.664 22.729-14.316 22.729-13.054 22.729-10.901 22.729-8.1551 22.729-5.4218" clip-path="url(#w)" fill="none" stroke="#ff7f0e" stroke-linecap="square" stroke-width="1.2"/>
<defs>
<path id="c" d="m0 1.25c0.3315 0 0.64948-0.13171 0.88388-0.36612 0.23441-0.23441 0.36612-0.55238 0.36612-0.88388s-0.13171-0.64948-0.36612-0.88388c-0.23441-0.23441-0.55238-0.36612-0.88388-0.36612s-0.64948 0.13171-0.88388 0.36612c-0.23441 0.23441-0.36612 0.55238-0.36612 0.88388s0.13171 0.64948 0.36612 0.88388c0.23441 0.23441 0.55238 0.36612 0.88388 0.36612z" stroke="#ff7f0e"/>
</defs>
<g clip-path="url(#w)" fill="#ff7f0e" stroke="#ff7f0e">
<use x="62.236253" y="231.389625" xlink:href="#c"/>
<use x="84.964799" y="223.857128" xlink:href="#c"/>
<use x="98.260147" y="218.134768" xlink:href="#c"/>
<use x="107.693346" y="213.524182" xlink:href="#c"/>
<use x="115.010303" y="209.666486" xlink:href="#c"/>
<use x="120.988693" y="206.352633" xlink:href="#c"/>
<use x="126.04335" y="203.450104" xlink:href="#c"/>
<use x="130.421892" y="200.869584" xlink:href="#c"/>
<use x="134.28404" y="198.548012" xlink:href="#c"/>
<use x="137.73885" y="196.439197" xlink:href="#c"/>
<use x="140.864105" y="194.508299" xlink:href="#c"/>
<use x="143.717239" y="192.728381" xlink:href="#c"/>
<use x="146.341869" y="191.078193" xlink:href="#c"/>
<use x="148.771896" y="189.540672" xlink:href="#c"/>
<use x="151.034197" y="188.10191" xlink:href="#c"/>
<use x="153.150439" y="186.750423" xlink:href="#c"/>
<use x="175.878985" y="172.086905" xlink:href="#c"/>
<use x="198.607531" y="157.771144" xlink:href="#c"/>
<use x="221.336078" y="144.716895" xlink:href="#c"/>
<use x="244.064624" y="133.815839" xlink:href="#c"/>
<use x="266.79317" y="125.660765" xlink:href="#c"/>
<use x="289.521717" y="120.23899" xlink:href="#c"/>
</g>
<path d="m62.236 223.79 22.729-5.7329 13.295-4.6174 9.4332-3.8624 7.317-3.3173 5.9784-2.9051 5.0547-2.5826 4.3785-2.3232 3.8621-2.1101 3.4548-1.932 3.1253-1.7808 2.8531-1.6509 2.6246-1.5381 2.43-1.4393 2.2623-1.3519 2.1162-1.2742 22.729-14.041 22.729-13.973 22.729-12.874 22.729-10.809 22.729-8.1082 22.729-5.3982" clip-path="url(#w)" fill="none" stroke="#2ca02c" stroke-linecap="square" stroke-width="1.2"/>
<defs>
<path id="f" d="m0 1.25c0.3315 0 0.64948-0.13171 0.88388-0.36612 0.23441-0.23441 0.36612-0.55238 0.36612-0.88388s-0.13171-0.64948-0.36612-0.88388c-0.23441-0.23441-0.55238-0.36612-0.88388-0.36612s-0.64948 0.13171-0.88388 0.36612c-0.23441 0.23441-0.36612 0.55238-0.36612 0.88388s0.13171 0.64948 0.36612 0.88388c0.23441 0.23441 0.55238 0.36612 0.88388 0.36612z" stroke="#2ca02c"/>
</defs>
<g clip-path="url(#w)" fill="#2ca02c" stroke="#2ca02c">
<use x="62.236253" y="223.788895" xlink:href="#f"/>
<use x="84.964799" y="218.056022" xlink:href="#f"/>
<use x="98.260147" y="213.438655" xlink:href="#f"/>
<use x="107.693346" y="209.57625" xlink:href="#f"/>
<use x="115.010303" y="206.258956" xlink:href="#f"/>
<use x="120.988693" y="203.353819" xlink:href="#f"/>
<use x="126.04335" y="200.771268" xlink:href="#f"/>
<use x="130.421892" y="198.448077" xlink:href="#f"/>
<use x="134.28404" y="196.337955" xlink:href="#f"/>
<use x="137.73885" y="194.405983" xlink:href="#f"/>
<use x="140.864105" y="192.625176" xlink:href="#f"/>
<use x="143.717239" y="190.974245" xlink:href="#f"/>
<use x="146.341869" y="189.436099" xlink:href="#f"/>
<use x="148.771896" y="187.996809" xlink:href="#f"/>
<use x="151.034197" y="186.644874" xlink:href="#f"/>
<use x="153.150439" y="185.370687" xlink:href="#f"/>
<use x="175.878985" y="171.329728" xlink:href="#f"/>
<use x="198.607531" y="157.356739" xlink:href="#f"/>
<use x="221.336078" y="144.48271" xlink:href="#f"/>
<use x="244.064624" y="133.674109" xlink:href="#f"/>
<use x="266.79317" y="125.565867" xlink:href="#f"/>
<use x="289.521717" y="120.167661" xlink:href="#f"/>
</g>
<path d="m62.236 213.32 22.729-3.8792 13.295-3.3296 9.4332-2.9146 7.317-2.59 5.9784-2.3291 5.0547-2.115 4.3785-1.936 3.8621-1.7842 3.4548-1.6538 3.1253-1.5406 2.8531-1.4414 2.6246-1.3538 2.43-1.2758 2.2623-1.206 2.1162-1.1431 22.729-12.942 22.729-13.334 22.729-12.527 22.729-10.628 22.729-8.0159 22.729-5.3515" clip-path="url(#w)" fill="none" stroke="#d62728" stroke-linecap="square" stroke-width="1.2"/>
<defs>
<path id="e" d="m0 1.25c0.3315 0 0.64948-0.13171 0.88388-0.36612 0.23441-0.23441 0.36612-0.55238 0.36612-0.88388s-0.13171-0.64948-0.36612-0.88388c-0.23441-0.23441-0.55238-0.36612-0.88388-0.36612s-0.64948 0.13171-0.88388 0.36612c-0.23441 0.23441-0.36612 0.55238-0.36612 0.88388s0.13171 0.64948 0.36612 0.88388c0.23441 0.23441 0.55238 0.36612 0.88388 0.36612z" stroke="#d62728"/>
</defs>
<g clip-path="url(#w)" fill="#d62728" stroke="#d62728">
<use x="62.236253" y="213.316783" xlink:href="#e"/>
<use x="84.964799" y="209.437573" xlink:href="#e"/>
<use x="98.260147" y="206.10793" xlink:href="#e"/>
<use x="107.693346" y="203.193367" xlink:href="#e"/>
<use x="115.010303" y="200.60341" xlink:href="#e"/>
<use x="120.988693" y="198.274269" xlink:href="#e"/>
<use x="126.04335" y="196.159277" xlink:href="#e"/>
<use x="130.421892" y="194.223262" xlink:href="#e"/>
<use x="134.28404" y="192.439057" xlink:href="#e"/>
<use x="137.73885" y="190.785242" xlink:href="#e"/>
<use x="140.864105" y="189.244627" xlink:href="#e"/>
<use x="143.717239" y="187.803208" xlink:href="#e"/>
<use x="146.341869" y="186.449426" xlink:href="#e"/>
<use x="148.771896" y="185.173628" xlink:href="#e"/>
<use x="151.034197" y="183.967671" xlink:href="#e"/>
<use x="153.150439" y="182.82462" xlink:href="#e"/>
<use x="175.878985" y="169.882196" xlink:href="#e"/>
<use x="198.607531" y="156.548396" xlink:href="#e"/>
<use x="221.336078" y="144.020955" xlink:href="#e"/>
<use x="244.064624" y="133.393086" xlink:href="#e"/>
<use x="266.79317" y="125.377166" xlink:href="#e"/>
<use x="289.521717" y="120.025622" xlink:href="#e"/>
</g>
<path d="m62.236 200.38 22.729-2.352 13.295-2.1338 9.4332-1.9517 7.317-1.7975 5.9784-1.6652 5.0547-1.5504 4.3785-1.45 3.8621-1.3613 3.4548-1.2824 3.1253-1.2118 2.8531-1.1483 2.6246-1.0908 2.43-1.0385 2.2623-0.99075 2.1162-0.94698 22.729-11.19 22.729-12.213 22.729-11.885 22.729-10.282 22.729-7.8365 22.729-5.2601" clip-path="url(#w)" fill="none" stroke="#9467bd" stroke-linecap="square" stroke-width="1.2"/>
<defs>
<path id="d" d="m0 1.25c0.3315 0 0.64948-0.13171 0.88388-0.36612 0.23441-0.23441 0.36612-0.55238 0.36612-0.88388s-0.13171-0.64948-0.36612-0.88388c-0.23441-0.23441-0.55238-0.36612-0.88388-0.36612s-0.64948 0.13171-0.88388 0.36612c-0.23441 0.23441-0.36612 0.55238-0.36612 0.88388s0.13171 0.64948 0.36612 0.88388c0.23441 0.23441 0.55238 0.36612 0.88388 0.36612z" stroke="#9467bd"/>
</defs>
<g clip-path="url(#w)" fill="#9467bd" stroke="#9467bd">
<use x="62.236253" y="200.382559" xlink:href="#d"/>
<use x="84.964799" y="198.030552" xlink:href="#d"/>
<use x="98.260147" y="195.896753" xlink:href="#d"/>
<use x="107.693346" y="193.945027" xlink:href="#d"/>
<use x="115.010303" y="192.147525" xlink:href="#d"/>
<use x="120.988693" y="190.482333" xlink:href="#d"/>
<use x="126.04335" y="188.931891" xlink:href="#d"/>
<use x="130.421892" y="187.481918" xlink:href="#d"/>
<use x="134.28404" y="186.120635" xlink:href="#d"/>
<use x="137.73885" y="184.838221" xlink:href="#d"/>
<use x="140.864105" y="183.626396" xlink:href="#d"/>
<use x="143.717239" y="182.478117" xlink:href="#d"/>
<use x="146.341869" y="181.387343" xlink:href="#d"/>
<use x="148.771896" y="180.348853" xlink:href="#d"/>
<use x="151.034197" y="179.358104" xlink:href="#d"/>
<use x="153.150439" y="178.41112" xlink:href="#d"/>
<use x="175.878985" y="167.221055" xlink:href="#d"/>
<use x="198.607531" y="155.007621" xlink:href="#d"/>
<use x="221.336078" y="143.122777" xlink:href="#d"/>
<use x="244.064624" y="132.840536" xlink:href="#d"/>
<use x="266.79317" y="125.004071" xlink:href="#d"/>
<use x="289.521717" y="119.743993" xlink:href="#d"/>
</g>
<path d="m50.872 248.38v-201.98" fill="none" stroke="#000" stroke-linecap="square" stroke-width=".8"/>
<path d="m300.89 248.38v-201.98" fill="none" stroke="#000" stroke-linecap="square" stroke-width=".8"/>
<path d="m50.872 248.38h250.01" fill="none" stroke="#000" stroke-linecap="square" stroke-width=".8"/>
<path d="m50.872 46.399h250.01" fill="none" stroke="#000" stroke-linecap="square" stroke-width=".8"/>
<g transform="translate(96.031 40.399) scale(.12 -.12)">
<defs>
<path id="bh" transform="scale(.015625)" d="m1626 3968v-3217c0-547-71-617-602-617v-134h1869v134c-525 0-615 83-615 553v3281h346c730 0 870-115 1018-819h153l-38 1088h-3610l-38-1088h153c154 697 301 819 1018 819h346z"/>
<path id="bd" transform="scale(.015625)" d="m1005 2222c269 294 461 402 710 402 320 0 480-229 480-676v-1264c0-434-64-518-435-556v-96h1357v96c-346 64-384 115-384 556v1270c0 671-269 1016-787 1016-378 0-647-154-941-538v1958l-32 19c-218-77-378-128-736-230l-173-51v-102c26 6 45 6 77 6 275 0 326-52 326-327v-3019c0-449-38-507-409-558v-96h1382v96c-371 38-435 115-435 556v1538z"/>
<path id="be" transform="scale(.015625)" d="m979 4364-32 13c-269-96-441-147-742-230l-186-51v-102c39 6 64 6 109 6 256 0 314-58 314-327v-3326c0-200 544-411 1056-411 844 0 1497 704 1497 1619 0 787-486 1389-1126 1389-391 0-762-230-890-544v1964zm0-2303c0 249 301 480 634 480 499 0 819-499 819-1280 0-711-307-1120-832-1120-333 0-621 147-621 307v1613z"/>
</defs>
<use transform="scale(.99626)" xlink:href="#bh"/>
<use transform="translate(60.872) scale(.99626)" xlink:href="#bd"/>
<use transform="translate(110.68) scale(.99626)" xlink:href="#l"/>
<use transform="translate(154.92) scale(.99626)" xlink:href="#i"/>
<use transform="translate(204.73) scale(.99626)" xlink:href="#z"/>
<use transform="translate(237.91) scale(.99626)" xlink:href="#l"/>
<use transform="translate(282.14) scale(.99626)" xlink:href="#g"/>
<use transform="translate(309.84) scale(.99626)" xlink:href="#m"/>
<use transform="translate(337.53) scale(.99626)" xlink:href="#aa"/>
<use transform="translate(381.76) scale(.99626)" xlink:href="#h"/>
<use transform="translate(426) scale(.99626)" xlink:href="#u"/>
<use transform="translate(478.6) scale(.99626)" xlink:href="#q"/>
<use transform="translate(528.41) scale(.99626)" xlink:href="#o"/>
<use transform="translate(578.23) scale(.99626)" xlink:href="#aj"/>
<use transform="translate(655.73) scale(.99626)" xlink:href="#be"/>
<use transform="translate(705.55) scale(.99626)" xlink:href="#l"/>
<use transform="translate(749.78) scale(.99626)" xlink:href="#z"/>
<use transform="translate(807.86) scale(.99626)" xlink:href="#i"/>
<use transform="translate(857.68) scale(.99626)" xlink:href="#af"/>
<use transform="translate(915.76) scale(.99626)" xlink:href="#i"/>
<use transform="translate(965.57) scale(.99626)" xlink:href="#p"/>
<use transform="translate(1015.4) scale(.99626)" xlink:href="#l"/>
<use transform="translate(1059.6) scale(.99626)" xlink:href="#z"/>
<use transform="translate(1092.8) scale(.99626)" xlink:href="#h"/>
<use transform="translate(1137) scale(.99626)" xlink:href="#g"/>
<use transform="translate(1164.7) scale(.99626)" xlink:href="#m"/>
<use transform="translate(1192.4) scale(.99626)" xlink:href="#i"/>
<use transform="translate(1242.2) scale(.99626)" xlink:href="#q"/>
<use transform="translate(1292) scale(.99626)" xlink:href="#ap"/>
</g>
<path d="m57.872 123.84h106.9q2 0 2-2v-68.441q0-2-2-2h-106.9q-2 0-2 2v68.441q0 2 2 2z" fill="#fff" opacity=".8" stroke="#ccc"/>
<path d="m58.372 57.399h10 10" fill="none" stroke="#1f77b4" stroke-linecap="square" stroke-width="1.2"/>
<use x="68.37198" y="57.399163" fill="#1f77b4" stroke="#1f77b4" xlink:href="#b"/>
<g transform="translate(86.372 60.899) scale(.1 -.1)">
<defs>
<path id="aw" transform="scale(.015625)" d="m3066 1472v1485h-148c-76-496-192-589-704-589h-928v1398c0 177 32 215 205 215h871c723 0 864-95 972-667h160l-19 910h-3398v-122c473-38 557-128 557-577v-2776c0-532-71-615-557-615v-134h1792v134c-493 0-583 91-583 558v1414h928c519 0 628-99 704-634h148z"/>
</defs>
<use transform="scale(.99626)" xlink:href="#aw"/>
<use transform="translate(55.392) scale(.99626)" xlink:href="#o"/>
<use transform="translate(105.2) scale(.99626)" xlink:href="#u"/>
<use transform="translate(132.9) scale(.99626)" xlink:href="#u"/>
<use transform="translate(185.5) scale(.99626)" xlink:href="#af"/>
<use transform="translate(217.68) scale(.99626)" xlink:href="#h"/>
<use transform="translate(261.91) scale(.99626)" xlink:href="#aa"/>
<use transform="translate(306.15) scale(.99626)" xlink:href="#g"/>
<use transform="translate(333.84) scale(.99626)" xlink:href="#i"/>
<use transform="translate(383.66) scale(.99626)" xlink:href="#z"/>
<use transform="translate(416.83) scale(.99626)" xlink:href="#m"/>
<use transform="translate(444.53) scale(.99626)" xlink:href="#ao"/>
<use transform="translate(488.76) scale(.99626)" xlink:href="#h"/>
<use transform="translate(532.99) scale(.99626)" xlink:href="#g"/>
<use transform="translate(560.69) scale(.99626)" xlink:href="#m"/>
<use transform="translate(588.38) scale(.99626)" xlink:href="#i"/>
<use transform="translate(638.2) scale(.99626)" xlink:href="#q"/>
</g>
<path d="m58.372 69.056h10 10" fill="none" stroke="#a9a9a9" stroke-linecap="square" stroke-width="1.2"/>
<use x="68.37198" y="69.055991" fill="#a9a9a9" stroke="#a9a9a9" xlink:href="#k"/>
<g transform="translate(86.372 72.556) scale(.1 -.1)">
<defs>
<path id="n" transform="scale(.015625)" d="m1338 2304v1229c0 457 70 526 563 571v120h-1779v-120c492-45 563-115 563-577v-2778c0-539-64-615-563-615v-134h1779v121c-480 38-563 121-563 578v1323h1939v-1265c0-546-64-623-563-623v-134h1779v121c-480 38-563 121-563 575v2833c0 460 70 530 563 575v120h-1779v-120c492-45 563-114 563-571v-1229h-1939z"/>
<path id="ac" transform="scale(.015625)" d="m3040 2880h-864v-96c205 0 307-58 307-161 0-26-6-64-25-109l-621-1772-736 1635c-39 91-64 175-64 245 0 117 96 162 371 162v96h-1318v-90c166-25 275-96 326-205l730-1580 19-52 96-192c179-321 281-552 281-649 0-96-147-501-256-694-89-167-230-289-320-289-38 0-96 13-160 45-121 45-230 71-339 71-147 0-275-128-275-282 0-211 205-371 474-371 428 0 736 359 1081 1284l986 2619c83 206 153 270 307 289v96z"/>
<path id="y" transform="scale(.015625)" d="m1888 4326c-474-307-666-473-902-768-455-556-679-1196-679-1945 0-813 237-1440 800-2093 263-307 429-448 762-653l77 103c-512 403-692 627-864 1107-154 429-224 915-224 1555 0 672 83 1197 256 1594 179 396 371 627 832 998l-58 102z"/>
<path id="ae" transform="scale(.015625)" d="m2490 2612c-199-38-301-179-301-319 0-154 121-205 211-205 179 0 326 154 326 345 0 205-198 383-518 383-256 0-550-115-819-504-45 338-301 504-557 504-250 0-378-191-454-332-109-230-205-613-205-645 0-25 25-57 70-57 51 0 58 6 96 153 96 383 218 754 474 754 153 0 198-109 198-294 0-141-64-390-109-588l-179-689c-25-122-96-409-128-524-45-166-115-466-115-498 0-90 70-160 166-160 71 0 192 45 231 173 19 51 256 1015 294 1162 32 140 71 275 103 415 25 89 51 192 70 275 19 57 192 370 352 511 77 70 243 217 506 217 102 0 204-19 288-77z"/>
<path id="r" transform="scale(.015625)" d="m3418 2470h-3226v-422h3226v422zm0-1280h-3226v-422h3226v422z"/>
<path id="x" transform="scale(.015625)" d="m243-1133c474 307 666 474 903 768 454 557 678 1197 678 1946 0 819-237 1440-800 2093-262 307-429 448-762 652l-76-102c512-403 684-627 864-1107 153-429 224-915 224-1555 0-666-84-1197-256-1588-180-403-372-633-832-1004l57-103z"/>
</defs>
<use transform="scale(.99626)" xlink:href="#n"/>
<use transform="translate(71.93) scale(.99626)" xlink:href="#ac"/>
<use transform="translate(121.74) scale(.99626)" xlink:href="#n"/>
<use transform="translate(218.58) scale(.99626)" xlink:href="#o"/>
<use transform="translate(268.39) scale(.99626)" xlink:href="#p"/>
<use transform="translate(318.21) scale(.99626)" xlink:href="#v"/>
<use transform="translate(368.02) scale(.99626)" xlink:href="#h"/>
<use transform="translate(412.25) scale(.99626)" xlink:href="#g"/>
<use transform="translate(439.95) scale(.99626)" xlink:href="#l"/>
<use transform="translate(509.09) scale(.99626)" xlink:href="#y"/>
<use transform="translate(542.26) scale(.99626)" xlink:href="#ae"/>
<use transform="translate(588.93) scale(.99626)" xlink:href="#r"/>
<use transform="translate(645.12) scale(.99626)" xlink:href="#ad"/>
<use transform="translate(694.94) scale(.99626)" xlink:href="#x"/>
</g>
<path d="m58.372 80.713h10 10" fill="none" stroke="#ff7f0e" stroke-linecap="square" stroke-width="1.2"/>
<use x="68.37198" y="80.71282" fill="#ff7f0e" stroke="#ff7f0e" xlink:href="#c"/>
<g transform="translate(86.372 84.213) scale(.1 -.1)">
<defs>
<path id="ax" transform="scale(.015625)" d="m3021 1497h-653v2855h-282l-2009-2855v-409h1798v-1056h493v1056h653v409zm-1152 0h-1536l1536 2201v-2201z"/>
</defs>
<use transform="scale(.99626)" xlink:href="#n"/>
<use transform="translate(71.93) scale(.99626)" xlink:href="#ac"/>
<use transform="translate(121.74) scale(.99626)" xlink:href="#n"/>
<use transform="translate(218.58) scale(.99626)" xlink:href="#o"/>
<use transform="translate(268.39) scale(.99626)" xlink:href="#p"/>
<use transform="translate(318.21) scale(.99626)" xlink:href="#v"/>
<use transform="translate(368.02) scale(.99626)" xlink:href="#h"/>
<use transform="translate(412.25) scale(.99626)" xlink:href="#g"/>
<use transform="translate(439.95) scale(.99626)" xlink:href="#l"/>
<use transform="translate(509.09) scale(.99626)" xlink:href="#y"/>
<use transform="translate(542.26) scale(.99626)" xlink:href="#ae"/>
<use transform="translate(588.93) scale(.99626)" xlink:href="#r"/>
<use transform="translate(645.12) scale(.99626)" xlink:href="#ax"/>
<use transform="translate(694.94) scale(.99626)" xlink:href="#x"/>
</g>
<path d="m58.372 92.37h10 10" fill="none" stroke="#2ca02c" stroke-linecap="square" stroke-width="1.2"/>
<use x="68.37198" y="92.369649" fill="#2ca02c" stroke="#2ca02c" xlink:href="#f"/>
<g transform="translate(86.372 95.87) scale(.1 -.1)">
<use transform="scale(.99626)" xlink:href="#n"/>
<use transform="translate(71.93) scale(.99626)" xlink:href="#ac"/>
<use transform="translate(121.74) scale(.99626)" xlink:href="#n"/>
<use transform="translate(218.58) scale(.99626)" xlink:href="#o"/>
<use transform="translate(268.39) scale(.99626)" xlink:href="#p"/>
<use transform="translate(318.21) scale(.99626)" xlink:href="#v"/>
<use transform="translate(368.02) scale(.99626)" xlink:href="#h"/>
<use transform="translate(412.25) scale(.99626)" xlink:href="#g"/>
<use transform="translate(439.95) scale(.99626)" xlink:href="#l"/>
<use transform="translate(509.09) scale(.99626)" xlink:href="#y"/>
<use transform="translate(542.26) scale(.99626)" xlink:href="#ae"/>
<use transform="translate(588.93) scale(.99626)" xlink:href="#r"/>
<use transform="translate(645.12) scale(.99626)" xlink:href="#ak"/>
<use transform="translate(694.94) scale(.99626)" xlink:href="#x"/>
</g>
<path d="m58.372 104.03h10 10" fill="none" stroke="#d62728" stroke-linecap="square" stroke-width="1.2"/>
<use x="68.37198" y="104.026478" fill="#d62728" stroke="#d62728" xlink:href="#e"/>
<g transform="translate(86.372 107.53) scale(.1 -.1)">
<defs>
<path id="ar" transform="scale(.015625)" d="m2854 4391c-729-64-1100-186-1568-512-691-493-1068-1223-1068-2077 0-554 172-1114 448-1432 243-281 588-434 985-434 794 0 1344 605 1344 1485 0 815-467 1331-1203 1331-282 0-416-45-819-288 173 967 889 1658 1894 1824l-13 103zm-1305-1933c550 0 870-458 870-1254 0-700-249-1088-697-1088-564 0-909 598-909 1584 0 325 51 503 179 599 134 101 333 159 557 159z"/>
</defs>
<use transform="scale(.99626)" xlink:href="#n"/>
<use transform="translate(71.93) scale(.99626)" xlink:href="#ac"/>
<use transform="translate(121.74) scale(.99626)" xlink:href="#n"/>
<use transform="translate(218.58) scale(.99626)" xlink:href="#o"/>
<use transform="translate(268.39) scale(.99626)" xlink:href="#p"/>
<use transform="translate(318.21) scale(.99626)" xlink:href="#v"/>
<use transform="translate(368.02) scale(.99626)" xlink:href="#h"/>
<use transform="translate(412.25) scale(.99626)" xlink:href="#g"/>
<use transform="translate(439.95) scale(.99626)" xlink:href="#l"/>
<use transform="translate(509.09) scale(.99626)" xlink:href="#y"/>
<use transform="translate(542.26) scale(.99626)" xlink:href="#ae"/>
<use transform="translate(588.93) scale(.99626)" xlink:href="#r"/>
<use transform="translate(645.12) scale(.99626)" xlink:href="#ad"/>
<use transform="translate(694.94) scale(.99626)" xlink:href="#ar"/>
<use transform="translate(744.75) scale(.99626)" xlink:href="#x"/>
</g>
<path d="m58.372 115.68h10 10" fill="none" stroke="#9467bd" stroke-linecap="square" stroke-width="1.2"/>
<use x="68.37198" y="115.683307" fill="#9467bd" stroke="#9467bd" xlink:href="#d"/>
<g transform="translate(86.372 119.18) scale(.1 -.1)">
<use transform="scale(.99626)" xlink:href="#n"/>
<use transform="translate(71.93) scale(.99626)" xlink:href="#ac"/>
<use transform="translate(121.74) scale(.99626)" xlink:href="#n"/>
<use transform="translate(218.58) scale(.99626)" xlink:href="#o"/>
<use transform="translate(268.39) scale(.99626)" xlink:href="#p"/>
<use transform="translate(318.21) scale(.99626)" xlink:href="#v"/>
<use transform="translate(368.02) scale(.99626)" xlink:href="#h"/>
<use transform="translate(412.25) scale(.99626)" xlink:href="#g"/>
<use transform="translate(439.95) scale(.99626)" xlink:href="#l"/>
<use transform="translate(509.09) scale(.99626)" xlink:href="#y"/>
<use transform="translate(542.26) scale(.99626)" xlink:href="#ae"/>
<use transform="translate(588.93) scale(.99626)" xlink:href="#r"/>
<use transform="translate(645.12) scale(.99626)" xlink:href="#ah"/>
<use transform="translate(694.94) scale(.99626)" xlink:href="#s"/>
<use transform="translate(744.75) scale(.99626)" xlink:href="#x"/>
</g>
<path d="m315.19 248.38h250.01v-201.98h-250.01z" fill="#fff"/>
<defs>
<path id="bc" d="m326.55-157.75v0.1515l22.729 0.014456 13.295-0.13477 9.4332 0.083987 7.317-0.080609 5.9784 0.029664 5.0547-0.021397 4.3785 0.11262 3.8621-0.017777 3.4548-0.023351 3.1253-0.038274 2.8531-0.028217 2.6246 0.11124 2.43-0.12599 2.2623 0.068004 2.1162-0.041956 22.729-6.9e-4 22.729 0.012394 22.729 0.034084 22.729-0.043014 22.729-0.012117 22.729 0.017131v-0.52074l-22.729 0.46406-22.729-0.058685-22.729-0.01749-22.729 0.065158-22.729-0.051377-22.729 0.00486-2.1162-0.007853-2.2623 0.007101-2.43 0.055525-2.6246-0.066481-2.8531-0.011581-3.1253 0.006387-3.4548 0.047678-3.8621-0.012221-4.3785-0.063746-5.0547 0.00463-5.9784-0.052934-7.317 0.1196-9.4332-0.071895-13.295 0.076928-22.729 0.016152z" stroke="#1f77b4" stroke-opacity=".25"/>
</defs>
<g clip-path="url(#t)">
<use y="288" fill="#1f77b4" fill-opacity=".25" stroke="#1f77b4" stroke-opacity=".25" xlink:href="#bc"/>
</g>
<use x="349.278809" y="248.377187" stroke="#000000" stroke-width=".8" xlink:href="#ab"/>
<g transform="translate(346.79 262.13) scale(.1 -.1)">
<use transform="scale(.99626)" xlink:href="#s"/>
</g>
<use x="394.735902" y="248.377187" stroke="#000000" stroke-width=".8" xlink:href="#ab"/>
<g transform="translate(392.25 262.13) scale(.1 -.1)">
<use transform="scale(.99626)" xlink:href="#ak"/>
</g>
<use x="440.192995" y="248.377187" stroke="#000000" stroke-width=".8" xlink:href="#ab"/>
<g transform="translate(435.21 262.13) scale(.1 -.1)">
<use transform="scale(.99626)" xlink:href="#ah"/>
<use transform="translate(49.813) scale(.99626)" xlink:href="#s"/>
</g>
<use x="485.650088" y="248.377187" stroke="#000000" stroke-width=".8" xlink:href="#ab"/>
<g transform="translate(478.18 262.13) scale(.1 -.1)">
<use transform="scale(.99626)" xlink:href="#ad"/>
<use transform="translate(49.813) scale(.99626)" xlink:href="#s"/>
<use transform="translate(99.626) scale(.99626)" xlink:href="#ak"/>
</g>
<use x="531.10718" y="248.377187" stroke="#000000" stroke-width=".8" xlink:href="#ab"/>
<g transform="translate(523.64 262.13) scale(.1 -.1)">
<use transform="scale(.99626)" xlink:href="#as"/>
<use transform="translate(49.813) scale(.99626)" xlink:href="#ad"/>
<use transform="translate(99.626) scale(.99626)" xlink:href="#s"/>
</g>
<g transform="translate(398.74 275.04) scale(.1 -.1)">
<use transform="scale(.99626)" xlink:href="#aq"/>
<use transform="translate(88.567) scale(.99626)" xlink:href="#i"/>
<use transform="translate(138.38) scale(.99626)" xlink:href="#v"/>
<use transform="translate(188.19) scale(.99626)" xlink:href="#m"/>
<use transform="translate(215.89) scale(.99626)" xlink:href="#ay"/>
<use transform="translate(271.28) scale(.99626)" xlink:href="#aa"/>
<use transform="translate(315.51) scale(.99626)" xlink:href="#h"/>
<use transform="translate(359.75) scale(.99626)" xlink:href="#g"/>
<use transform="translate(387.44) scale(.99626)" xlink:href="#m"/>
<use transform="translate(415.14) scale(.99626)" xlink:href="#i"/>
<use transform="translate(464.95) scale(.99626)" xlink:href="#q"/>
<use transform="translate(539.67) scale(.99626)" xlink:href="#z"/>
<use transform="translate(572.85) scale(.99626)" xlink:href="#h"/>
<use transform="translate(617.08) scale(.99626)" xlink:href="#q"/>
<use transform="translate(666.89) scale(.99626)" xlink:href="#au"/>
<use transform="translate(741.61) scale(.99626)" xlink:href="#bb"/>
</g>
<use x="315.18599" y="243.019954" stroke="#000000" stroke-width=".8" xlink:href="#ag"/>
<use x="315.18599" y="186.643845" stroke="#000000" stroke-width=".8" xlink:href="#ag"/>
<use x="315.18599" y="130.267737" stroke="#000000" stroke-width=".8" xlink:href="#ag"/>
<use x="315.18599" y="73.891629" stroke="#000000" stroke-width=".8" xlink:href="#ag"/>
<use x="315.18599" y="245.599583" stroke="#000000" stroke-width=".6" xlink:href="#a"/>
<use x="315.18599" y="226.049054" stroke="#000000" stroke-width=".6" xlink:href="#a"/>
<use x="315.18599" y="216.121714" stroke="#000000" stroke-width=".6" xlink:href="#a"/>
<use x="315.18599" y="209.078155" stroke="#000000" stroke-width=".6" xlink:href="#a"/>
<use x="315.18599" y="203.614745" stroke="#000000" stroke-width=".6" xlink:href="#a"/>
<use x="315.18599" y="199.150815" stroke="#000000" stroke-width=".6" xlink:href="#a"/>
<use x="315.18599" y="195.376615" stroke="#000000" stroke-width=".6" xlink:href="#a"/>
<use x="315.18599" y="192.107255" stroke="#000000" stroke-width=".6" xlink:href="#a"/>
<use x="315.18599" y="189.223475" stroke="#000000" stroke-width=".6" xlink:href="#a"/>
<use x="315.18599" y="169.672946" stroke="#000000" stroke-width=".6" xlink:href="#a"/>
<use x="315.18599" y="159.745606" stroke="#000000" stroke-width=".6" xlink:href="#a"/>
<use x="315.18599" y="152.702046" stroke="#000000" stroke-width=".6" xlink:href="#a"/>
<use x="315.18599" y="147.238637" stroke="#000000" stroke-width=".6" xlink:href="#a"/>
<use x="315.18599" y="142.774706" stroke="#000000" stroke-width=".6" xlink:href="#a"/>
<use x="315.18599" y="139.000507" stroke="#000000" stroke-width=".6" xlink:href="#a"/>
<use x="315.18599" y="135.731147" stroke="#000000" stroke-width=".6" xlink:href="#a"/>
<use x="315.18599" y="132.847366" stroke="#000000" stroke-width=".6" xlink:href="#a"/>
<use x="315.18599" y="113.296838" stroke="#000000" stroke-width=".6" xlink:href="#a"/>
<use x="315.18599" y="103.369498" stroke="#000000" stroke-width=".6" xlink:href="#a"/>
<use x="315.18599" y="96.325938" stroke="#000000" stroke-width=".6" xlink:href="#a"/>
<use x="315.18599" y="90.862528" stroke="#000000" stroke-width=".6" xlink:href="#a"/>
<use x="315.18599" y="86.398598" stroke="#000000" stroke-width=".6" xlink:href="#a"/>
<use x="315.18599" y="82.624399" stroke="#000000" stroke-width=".6" xlink:href="#a"/>
<use x="315.18599" y="79.355038" stroke="#000000" stroke-width=".6" xlink:href="#a"/>
<use x="315.18599" y="76.471258" stroke="#000000" stroke-width=".6" xlink:href="#a"/>
<use x="315.18599" y="56.920729" stroke="#000000" stroke-width=".6" xlink:href="#a"/>
<use x="315.18599" y="46.993389" stroke="#000000" stroke-width=".6" xlink:href="#a"/>
<g stroke="#1f77b4">
<path d="m326.55 130.27h22.729 13.295 9.4332 7.317 5.9784 5.0547 4.3785 3.8621 3.4548 3.1253 2.8531 2.6246 2.43 2.2623 2.1162 22.729 22.729 22.729 22.729 22.729 22.729" clip-path="url(#t)" fill="none" stroke-linecap="square" stroke-width="1.2"/>
<g clip-path="url(#t)" fill="#1f77b4">
<use x="326.550263" y="130.267737" xlink:href="#b"/>
<use x="349.278809" y="130.267737" xlink:href="#b"/>
<use x="362.574157" y="130.267737" xlink:href="#b"/>
<use x="372.007356" y="130.267737" xlink:href="#b"/>
<use x="379.324313" y="130.267737" xlink:href="#b"/>
<use x="385.302703" y="130.267737" xlink:href="#b"/>
<use x="390.35736" y="130.267737" xlink:href="#b"/>
<use x="394.735902" y="130.267737" xlink:href="#b"/>
<use x="398.59805" y="130.267737" xlink:href="#b"/>
<use x="402.05286" y="130.267737" xlink:href="#b"/>
<use x="405.178115" y="130.267737" xlink:href="#b"/>
<use x="408.03125" y="130.267737" xlink:href="#b"/>
<use x="410.655879" y="130.267737" xlink:href="#b"/>
<use x="413.085906" y="130.267737" xlink:href="#b"/>
<use x="415.348207" y="130.267737" xlink:href="#b"/>
<use x="417.464449" y="130.267737" xlink:href="#b"/>
<use x="440.192995" y="130.267737" xlink:href="#b"/>
<use x="462.921541" y="130.267737" xlink:href="#b"/>
<use x="485.650088" y="130.267737" xlink:href="#b"/>
<use x="508.378634" y="130.267737" xlink:href="#b"/>
<use x="531.10718" y="130.267737" xlink:href="#b"/>
<use x="553.835727" y="130.267737" xlink:href="#b"/>
</g>
</g>
<path d="m326.55 222.28 22.729-7.33 13.295-6.1833 9.4332-7.6005 7.317-5.0755 5.9784-2.6191 5.0547-5.6645 4.3785-3.5404 3.8621-3.8904 3.4548-5.133 3.1253-5.0115 2.8531-4.8432 2.6246-3.9375 2.43-1.3392 2.2623-3.8251 2.1162-0.52226 22.729-20.406 22.729-16.52 22.729-17.763 22.729-26.503 22.729-12.326 22.729-6.6648" clip-path="url(#t)" fill="none" stroke="#808080" stroke-linecap="square" stroke-width="1.2"/>
<defs>
<path id="j" d="m0 1.25c0.3315 0 0.64948-0.13171 0.88388-0.36612 0.23441-0.23441 0.36612-0.55238 0.36612-0.88388s-0.13171-0.64948-0.36612-0.88388c-0.23441-0.23441-0.55238-0.36612-0.88388-0.36612s-0.64948 0.13171-0.88388 0.36612c-0.23441 0.23441-0.36612 0.55238-0.36612 0.88388s0.13171 0.64948 0.36612 0.88388c0.23441 0.23441 0.55238 0.36612 0.88388 0.36612z" stroke="#808080"/>
</defs>
<g clip-path="url(#t)" fill="#808080" stroke="#808080">
<use x="326.550263" y="222.277855" xlink:href="#j"/>
<use x="349.278809" y="214.947821" xlink:href="#j"/>
<use x="362.574157" y="208.764481" xlink:href="#j"/>
<use x="372.007356" y="201.163933" xlink:href="#j"/>
<use x="379.324313" y="196.088423" xlink:href="#j"/>
<use x="385.302703" y="193.469325" xlink:href="#j"/>
<use x="390.35736" y="187.804779" xlink:href="#j"/>
<use x="394.735902" y="184.264415" xlink:href="#j"/>
<use x="398.59805" y="180.374034" xlink:href="#j"/>
<use x="402.05286" y="175.24106" xlink:href="#j"/>
<use x="405.178115" y="170.229521" xlink:href="#j"/>
<use x="408.03125" y="165.386343" xlink:href="#j"/>
<use x="410.655879" y="161.448881" xlink:href="#j"/>
<use x="413.085906" y="160.109704" xlink:href="#j"/>
<use x="415.348207" y="156.284608" xlink:href="#j"/>
<use x="417.464449" y="155.762344" xlink:href="#j"/>
<use x="440.192995" y="135.356685" xlink:href="#j"/>
<use x="462.921541" y="118.836772" xlink:href="#j"/>
<use x="485.650088" y="101.073777" xlink:href="#j"/>
<use x="508.378634" y="74.570885" xlink:href="#j"/>
<use x="531.10718" y="62.244801" xlink:href="#j"/>
<use x="553.835727" y="55.579982" xlink:href="#j"/>
</g>
<g stroke="#ff7f0e">
<path d="m326.55 231.71 22.729-4.7235 13.295-4.3481 9.4332-4.5478 7.317-3.0576 5.9784-3.6222 5.0547-3.0225 4.3785-1.9257 3.8621-3.9034 3.4548-2.4157 3.1253-2.638 2.8531-1.5722 2.6246-2.5428 2.43-1.9763 2.2623-2.8917 2.1162-0.94728 22.729-18.219 22.729-17.694 22.729-17.917 22.729-23.785 22.729-13.421 22.729-7.4318" clip-path="url(#t)" fill="none" stroke-linecap="square" stroke-width="1.2"/>
<g clip-path="url(#t)" fill="#ff7f0e">
<use x="326.550263" y="231.714449" xlink:href="#c"/>
<use x="349.278809" y="226.990975" xlink:href="#c"/>
<use x="362.574157" y="222.642911" xlink:href="#c"/>
<use x="372.007356" y="218.095141" xlink:href="#c"/>
<use x="379.324313" y="215.037496" xlink:href="#c"/>
<use x="385.302703" y="211.415322" xlink:href="#c"/>
<use x="390.35736" y="208.392864" xlink:href="#c"/>
<use x="394.735902" y="206.467167" xlink:href="#c"/>
<use x="398.59805" y="202.563724" xlink:href="#c"/>
<use x="402.05286" y="200.147979" xlink:href="#c"/>
<use x="405.178115" y="197.509946" xlink:href="#c"/>
<use x="408.03125" y="195.937714" xlink:href="#c"/>
<use x="410.655879" y="193.394908" xlink:href="#c"/>
<use x="413.085906" y="191.418614" xlink:href="#c"/>
<use x="415.348207" y="188.526884" xlink:href="#c"/>
<use x="417.464449" y="187.579599" xlink:href="#c"/>
<use x="440.192995" y="169.360918" xlink:href="#c"/>
<use x="462.921541" y="151.667277" xlink:href="#c"/>
<use x="485.650088" y="133.750518" xlink:href="#c"/>
<use x="508.378634" y="109.965144" xlink:href="#c"/>
<use x="531.10718" y="96.544281" xlink:href="#c"/>
<use x="553.835727" y="89.11249" xlink:href="#c"/>
</g>
</g>
<g stroke="#2ca02c">
<path d="m326.55 226.55 22.729-4.0535 13.295-3.6477 9.4332-2.8451 7.317-3.2009 5.9784-2.3428 5.0547-2.2045 4.3785-1.8091 3.8621-2.2782 3.4548-1.7856 3.1253-1.8975 2.8531-1.5258 2.6246-1.493 2.43-1.6542 2.2623-1.0691 2.1162-0.81943 22.729-15.033 22.729-16.083 22.729-15.045 22.729-18.781 22.729-12.592 22.729-7.5194" clip-path="url(#t)" fill="none" stroke-linecap="square" stroke-width="1.2"/>
<g clip-path="url(#t)" fill="#2ca02c">
<use x="326.550263" y="226.547" xlink:href="#f"/>
<use x="349.278809" y="222.493527" xlink:href="#f"/>
<use x="362.574157" y="218.845859" xlink:href="#f"/>
<use x="372.007356" y="216.00076" xlink:href="#f"/>
<use x="379.324313" y="212.799817" xlink:href="#f"/>
<use x="385.302703" y="210.457004" xlink:href="#f"/>
<use x="390.35736" y="208.252509" xlink:href="#f"/>
<use x="394.735902" y="206.443404" xlink:href="#f"/>
<use x="398.59805" y="204.165239" xlink:href="#f"/>
<use x="402.05286" y="202.379666" xlink:href="#f"/>
<use x="405.178115" y="200.482127" xlink:href="#f"/>
<use x="408.03125" y="198.956366" xlink:href="#f"/>
<use x="410.655879" y="197.463394" xlink:href="#f"/>
<use x="413.085906" y="195.809183" xlink:href="#f"/>
<use x="415.348207" y="194.740131" xlink:href="#f"/>
<use x="417.464449" y="193.920698" xlink:href="#f"/>
<use x="440.192995" y="178.887562" xlink:href="#f"/>
<use x="462.921541" y="162.804933" xlink:href="#f"/>
<use x="485.650088" y="147.759826" xlink:href="#f"/>
<use x="508.378634" y="128.97883" xlink:href="#f"/>
<use x="531.10718" y="116.386801" xlink:href="#f"/>
<use x="553.835727" y="108.867392" xlink:href="#f"/>
</g>
</g>
<g stroke="#d62728">
<path d="m326.55 219.94 22.729-3.3655 13.295-2.571 9.4332-2.2877 7.317-2.5247 5.9784-1.7854 5.0547-1.8522 4.3785-1.731 3.8621-1.6604 3.4548-1.7466 3.1253-1.3802 2.8531-1.2204 2.6246-1.173 2.43-1.4123 2.2623-1.1683 2.1162-0.93493 22.729-12.764 22.729-13.878 22.729-13.922 22.729-12.121 22.729-9.8464 22.729-7.4976" clip-path="url(#t)" fill="none" stroke-linecap="square" stroke-width="1.2"/>
<g clip-path="url(#t)" fill="#d62728">
<use x="326.550263" y="219.935611" xlink:href="#e"/>
<use x="349.278809" y="216.570064" xlink:href="#e"/>
<use x="362.574157" y="213.999106" xlink:href="#e"/>
<use x="372.007356" y="211.711358" xlink:href="#e"/>
<use x="379.324313" y="209.186652" xlink:href="#e"/>
<use x="385.302703" y="207.401253" xlink:href="#e"/>
<use x="390.35736" y="205.549088" xlink:href="#e"/>
<use x="394.735902" y="203.818111" xlink:href="#e"/>
<use x="398.59805" y="202.157673" xlink:href="#e"/>
<use x="402.05286" y="200.411076" xlink:href="#e"/>
<use x="405.178115" y="199.030878" xlink:href="#e"/>
<use x="408.03125" y="197.810502" xlink:href="#e"/>
<use x="410.655879" y="196.63752" xlink:href="#e"/>
<use x="413.085906" y="195.225245" xlink:href="#e"/>
<use x="415.348207" y="194.05692" xlink:href="#e"/>
<use x="417.464449" y="193.121993" xlink:href="#e"/>
<use x="440.192995" y="180.358032" xlink:href="#e"/>
<use x="462.921541" y="166.479957" xlink:href="#e"/>
<use x="485.650088" y="152.558277" xlink:href="#e"/>
<use x="508.378634" y="140.436801" xlink:href="#e"/>
<use x="531.10718" y="130.590415" xlink:href="#e"/>
<use x="553.835727" y="123.092767" xlink:href="#e"/>
</g>
</g>
<g stroke="#9467bd">
<path d="m326.55 207.48 22.729-1.8109 13.295-2.0078 9.4332-1.7517 7.317-1.7123 5.9784-1.3129 5.0547-1.6616 4.3785-1.2998 3.8621-1.4075 3.4548-1.2417 3.1253-1.1455 2.8531-1.168 2.6246-1.0368 2.43-0.97076 2.2623-1.0431 2.1162-0.91104 22.729-11.217 22.729-12.832 22.729-13.09 22.729-11.669 22.729-11.313 22.729-6.2674" clip-path="url(#t)" fill="none" stroke-linecap="square" stroke-width="1.2"/>
<g clip-path="url(#t)" fill="#9467bd">
<use x="326.550263" y="207.476739" xlink:href="#d"/>
<use x="349.278809" y="205.665828" xlink:href="#d"/>
<use x="362.574157" y="203.658071" xlink:href="#d"/>
<use x="372.007356" y="201.906338" xlink:href="#d"/>
<use x="379.324313" y="200.194064" xlink:href="#d"/>
<use x="385.302703" y="198.881194" xlink:href="#d"/>
<use x="390.35736" y="197.219638" xlink:href="#d"/>
<use x="394.735902" y="195.919874" xlink:href="#d"/>
<use x="398.59805" y="194.512349" xlink:href="#d"/>
<use x="402.05286" y="193.270689" xlink:href="#d"/>
<use x="405.178115" y="192.125173" xlink:href="#d"/>
<use x="408.03125" y="190.957125" xlink:href="#d"/>
<use x="410.655879" y="189.920366" xlink:href="#d"/>
<use x="413.085906" y="188.94961" xlink:href="#d"/>
<use x="415.348207" y="187.906538" xlink:href="#d"/>
<use x="417.464449" y="186.995497" xlink:href="#d"/>
<use x="440.192995" y="175.778561" xlink:href="#d"/>
<use x="462.921541" y="162.946511" xlink:href="#d"/>
<use x="485.650088" y="149.856631" xlink:href="#d"/>
<use x="508.378634" y="138.187172" xlink:href="#d"/>
<use x="531.10718" y="126.874181" xlink:href="#d"/>
<use x="553.835727" y="120.606808" xlink:href="#d"/>
</g>
</g>
<path d="m315.19 248.38v-201.98" fill="none" stroke="#000" stroke-linecap="square" stroke-width=".8"/>
<path d="m565.2 248.38v-201.98" fill="none" stroke="#000" stroke-linecap="square" stroke-width=".8"/>
<path d="m315.19 248.38h250.01" fill="none" stroke="#000" stroke-linecap="square" stroke-width=".8"/>
<path d="m315.19 46.399h250.01" fill="none" stroke="#000" stroke-linecap="square" stroke-width=".8"/>
<g transform="translate(356.84 40.399) scale(.12 -.12)">
<defs>
<path id="av" transform="scale(.015625)" d="m4218 121c-244 19-372 84-557 303l-1319 1637c429 82 621 158 832 327 205 165 327 430 327 725 0 272-83 505-250 688-243 258-774 423-1376 423h-1766v-122c480-51 544-121 544-574v-2763c0-529-64-606-544-644v-121h1773v134c-493 0-576 85-576 558v1292h358l1523-1984h1031v121zm-2912 3641c0 175 70 225 326 225 800 0 1171-271 1171-864 0-316-134-581-365-700-294-165-518-202-1132-202v1541z"/>
</defs>
<use transform="scale(.99626)" xlink:href="#av"/>
<use transform="translate(66.45) scale(.99626)" xlink:href="#o"/>
<use transform="translate(116.26) scale(.99626)" xlink:href="#q"/>
<use transform="translate(190.98) scale(.99626)" xlink:href="#g"/>
<use transform="translate(218.68) scale(.99626)" xlink:href="#m"/>
<use transform="translate(246.37) scale(.99626)" xlink:href="#aj"/>
<use transform="translate(323.88) scale(.99626)" xlink:href="#l"/>
<use transform="translate(393.02) scale(.99626)" xlink:href="#i"/>
<use transform="translate(442.84) scale(.99626)" xlink:href="#af"/>
<use transform="translate(500.92) scale(.99626)" xlink:href="#h"/>
<use transform="translate(545.15) scale(.99626)" xlink:href="#aa"/>
<use transform="translate(589.38) scale(.99626)" xlink:href="#g"/>
<use transform="translate(617.08) scale(.99626)" xlink:href="#o"/>
<use transform="translate(666.89) scale(.99626)" xlink:href="#h"/>
<use transform="translate(711.13) scale(.99626)" xlink:href="#u"/>
<use transform="translate(763.73) scale(.99626)" xlink:href="#m"/>
<use transform="translate(791.42) scale(.99626)" xlink:href="#aj"/>
<use transform="translate(868.93) scale(.99626)" xlink:href="#p"/>
<use transform="translate(918.74) scale(.99626)" xlink:href="#u"/>
<use transform="translate(946.44) scale(.99626)" xlink:href="#l"/>
<use transform="translate(990.67) scale(.99626)" xlink:href="#aj"/>
<use transform="translate(1068.2) scale(.99626)" xlink:href="#l"/>
<use transform="translate(1112.4) scale(.99626)" xlink:href="#q"/>
<use transform="translate(1162.2) scale(.99626)" xlink:href="#g"/>
<use transform="translate(1189.9) scale(.99626)" xlink:href="#h"/>
<use transform="translate(1234.2) scale(.99626)" xlink:href="#g"/>
<use transform="translate(1261.9) scale(.99626)" xlink:href="#m"/>
<use transform="translate(1289.5) scale(.99626)" xlink:href="#i"/>
<use transform="translate(1339.4) scale(.99626)" xlink:href="#q"/>
</g>
<path d="m322.19 123.84h132.13q2 0 2-2v-68.441q0-2-2-2h-132.13q-2 0-2 2v68.441q0 2 2 2z" fill="#fff" opacity=".8" stroke="#ccc"/>
<path d="m322.69 57.399h10 10" fill="none" stroke="#1f77b4" stroke-linecap="square" stroke-width="1.2"/>
<use x="332.68599" y="57.399163" fill="#1f77b4" stroke="#1f77b4" xlink:href="#b"/>
<g transform="translate(350.69 60.899) scale(.1 -.1)">
<defs>
<path id="bj" transform="scale(.015625)" d="m2643 4109c77-13 141-13 167-13 192 0 268-51 268-179 0-142-147-334-499-660l-1133-1033v1310c0 466 71 537 589 575v122h-1817v-122c499-38 576-121 576-578v-2781c0-533-71-616-576-616v-134h1804v134c-499 0-576 77-576 549v1208l167 135 678-671c487-479 832-933 832-1086 0-90-89-135-269-135-32 0-102 0-179-13v-121h1952v134c-333 0-422 64-1005 682l-1491 1593 1216 1202c435 415 538 466 973 498v122h-1677v-122z"/>
<path id="bi" transform="scale(.015625)" d="m3667 1114c-109-244-198-391-294-500-224-249-576-364-1107-364h-429c-467 0-551 38-551 263v3037c0 457 90 546 596 546v141h-1805v-122c473-38 557-129 557-579v-2855c0-451-90-547-557-547v-134h3443l307 1114h-160z"/>
</defs>
<use transform="scale(.99626)" xlink:href="#aw"/>
<use transform="translate(55.392) scale(.99626)" xlink:href="#o"/>
<use transform="translate(105.2) scale(.99626)" xlink:href="#u"/>
<use transform="translate(132.9) scale(.99626)" xlink:href="#u"/>
<use transform="translate(185.5) scale(.99626)" xlink:href="#af"/>
<use transform="translate(217.68) scale(.99626)" xlink:href="#h"/>
<use transform="translate(261.91) scale(.99626)" xlink:href="#aa"/>
<use transform="translate(306.15) scale(.99626)" xlink:href="#g"/>
<use transform="translate(333.84) scale(.99626)" xlink:href="#i"/>
<use transform="translate(383.66) scale(.99626)" xlink:href="#z"/>
<use transform="translate(416.83) scale(.99626)" xlink:href="#m"/>
<use transform="translate(444.53) scale(.99626)" xlink:href="#ao"/>
<use transform="translate(488.76) scale(.99626)" xlink:href="#h"/>
<use transform="translate(532.99) scale(.99626)" xlink:href="#g"/>
<use transform="translate(560.69) scale(.99626)" xlink:href="#m"/>
<use transform="translate(588.38) scale(.99626)" xlink:href="#i"/>
<use transform="translate(638.2) scale(.99626)" xlink:href="#q"/>
<use transform="translate(712.92) scale(.99626)" xlink:href="#y"/>
<use transform="translate(746.09) scale(.99626)" xlink:href="#aq"/>
<use transform="translate(834.66) scale(.99626)" xlink:href="#bj"/>
<use transform="translate(906.59) scale(.99626)" xlink:href="#bi"/>
<use transform="translate(967.46) scale(.99626)" xlink:href="#x"/>
</g>
<path d="m322.69 69.056h10 10" fill="none" stroke="#808080" stroke-linecap="square" stroke-width="1.2"/>
<use x="332.68599" y="69.055991" fill="#808080" stroke="#808080" xlink:href="#j"/>
<g transform="translate(350.69 72.556) scale(.1 -.1)">
<defs>
<path id="al" transform="scale(.015625)" d="m531-889c429 211 717 601 717 985 0 320-224 570-512 570-224 0-378-147-378-365 0-205 148-326 378-326 38 0 83 6 122 12 44 13 44 13 51 13 51 0 89-38 89-89 0-205-179-442-524-679l57-121z"/>
<path id="an" transform="scale(.015625)" d="m1459 1280c109-19 282-57 320-64 83-24 371-126 371-433 0-197-179-713-921-713-135 0-615 0-743 366 256-32 384 167 384 309 0 135-89 205-217 205-141 0-327-109-327-398 0-379 384-616 896-616 973 0 1261 715 1261 1048 0 95 0 274-205 478-160 154-313 186-659 256-173 38-448 96-448 383 0 128 115 588 723 588 269 0 532-100 596-321-282 0-295-243-295-249 0-135 122-173 179-173 90 0 269 69 269 335 0 264-243 535-742 535-839 0-1063-656-1063-917 0-485 474-587 621-619z"/>
</defs>
<use transform="scale(.99626)" xlink:href="#n"/>
<use transform="translate(71.93) scale(.99626)" xlink:href="#ac"/>
<use transform="translate(121.74) scale(.99626)" xlink:href="#n"/>
<use transform="translate(218.58) scale(.99626)" xlink:href="#o"/>
<use transform="translate(268.39) scale(.99626)" xlink:href="#p"/>
<use transform="translate(318.21) scale(.99626)" xlink:href="#v"/>
<use transform="translate(368.02) scale(.99626)" xlink:href="#h"/>
<use transform="translate(412.25) scale(.99626)" xlink:href="#g"/>
<use transform="translate(439.95) scale(.99626)" xlink:href="#l"/>
<use transform="translate(509.09) scale(.99626)" xlink:href="#y"/>
<use transform="translate(542.26) scale(.99626)" xlink:href="#ae"/>
<use transform="translate(588.93) scale(.99626)" xlink:href="#r"/>
<use transform="translate(645.12) scale(.99626)" xlink:href="#ad"/>
<use transform="translate(694.94) scale(.99626)" xlink:href="#al"/>
<use transform="translate(744.75) scale(.99626)" xlink:href="#an"/>
<use transform="translate(790.7) scale(.99626)" xlink:href="#r"/>
<use transform="translate(846.89) scale(.99626)" xlink:href="#ah"/>
<use transform="translate(896.7) scale(.99626)" xlink:href="#s"/>
<use transform="translate(946.51) scale(.99626)" xlink:href="#x"/>
</g>
<path d="m322.69 80.713h10 10" fill="none" stroke="#ff7f0e" stroke-linecap="square" stroke-width="1.2"/>
<use x="332.68599" y="80.71282" fill="#ff7f0e" stroke="#ff7f0e" xlink:href="#c"/>
<g transform="translate(350.69 84.213) scale(.1 -.1)">
<use transform="scale(.99626)" xlink:href="#n"/>
<use transform="translate(71.93) scale(.99626)" xlink:href="#ac"/>
<use transform="translate(121.74) scale(.99626)" xlink:href="#n"/>
<use transform="translate(218.58) scale(.99626)" xlink:href="#o"/>
<use transform="translate(268.39) scale(.99626)" xlink:href="#p"/>
<use transform="translate(318.21) scale(.99626)" xlink:href="#v"/>
<use transform="translate(368.02) scale(.99626)" xlink:href="#h"/>
<use transform="translate(412.25) scale(.99626)" xlink:href="#g"/>
<use transform="translate(439.95) scale(.99626)" xlink:href="#l"/>
<use transform="translate(509.09) scale(.99626)" xlink:href="#y"/>
<use transform="translate(542.26) scale(.99626)" xlink:href="#ae"/>
<use transform="translate(588.93) scale(.99626)" xlink:href="#r"/>
<use transform="translate(645.12) scale(.99626)" xlink:href="#ax"/>
<use transform="translate(694.94) scale(.99626)" xlink:href="#al"/>
<use transform="translate(744.75) scale(.99626)" xlink:href="#an"/>
<use transform="translate(790.7) scale(.99626)" xlink:href="#r"/>
<use transform="translate(846.89) scale(.99626)" xlink:href="#ah"/>
<use transform="translate(896.7) scale(.99626)" xlink:href="#s"/>
<use transform="translate(946.51) scale(.99626)" xlink:href="#x"/>
</g>
<path d="m322.69 92.37h10 10" fill="none" stroke="#2ca02c" stroke-linecap="square" stroke-width="1.2"/>
<use x="332.68599" y="92.369649" fill="#2ca02c" stroke="#2ca02c" xlink:href="#f"/>
<g transform="translate(350.69 95.87) scale(.1 -.1)">
<use transform="scale(.99626)" xlink:href="#n"/>
<use transform="translate(71.93) scale(.99626)" xlink:href="#ac"/>
<use transform="translate(121.74) scale(.99626)" xlink:href="#n"/>
<use transform="translate(218.58) scale(.99626)" xlink:href="#o"/>
<use transform="translate(268.39) scale(.99626)" xlink:href="#p"/>
<use transform="translate(318.21) scale(.99626)" xlink:href="#v"/>
<use transform="translate(368.02) scale(.99626)" xlink:href="#h"/>
<use transform="translate(412.25) scale(.99626)" xlink:href="#g"/>
<use transform="translate(439.95) scale(.99626)" xlink:href="#l"/>
<use transform="translate(509.09) scale(.99626)" xlink:href="#y"/>
<use transform="translate(542.26) scale(.99626)" xlink:href="#ae"/>
<use transform="translate(588.93) scale(.99626)" xlink:href="#r"/>
<use transform="translate(645.12) scale(.99626)" xlink:href="#ak"/>
<use transform="translate(694.94) scale(.99626)" xlink:href="#al"/>
<use transform="translate(744.75) scale(.99626)" xlink:href="#an"/>
<use transform="translate(790.7) scale(.99626)" xlink:href="#r"/>
<use transform="translate(846.89) scale(.99626)" xlink:href="#ah"/>
<use transform="translate(896.7) scale(.99626)" xlink:href="#s"/>
<use transform="translate(946.51) scale(.99626)" xlink:href="#x"/>
</g>
<path d="m322.69 104.03h10 10" fill="none" stroke="#d62728" stroke-linecap="square" stroke-width="1.2"/>
<use x="332.68599" y="104.026478" fill="#d62728" stroke="#d62728" xlink:href="#e"/>
<g transform="translate(350.69 107.53) scale(.1 -.1)">
<use transform="scale(.99626)" xlink:href="#n"/>
<use transform="translate(71.93) scale(.99626)" xlink:href="#ac"/>
<use transform="translate(121.74) scale(.99626)" xlink:href="#n"/>
<use transform="translate(218.58) scale(.99626)" xlink:href="#o"/>
<use transform="translate(268.39) scale(.99626)" xlink:href="#p"/>
<use transform="translate(318.21) scale(.99626)" xlink:href="#v"/>
<use transform="translate(368.02) scale(.99626)" xlink:href="#h"/>
<use transform="translate(412.25) scale(.99626)" xlink:href="#g"/>
<use transform="translate(439.95) scale(.99626)" xlink:href="#l"/>
<use transform="translate(509.09) scale(.99626)" xlink:href="#y"/>
<use transform="translate(542.26) scale(.99626)" xlink:href="#ae"/>
<use transform="translate(588.93) scale(.99626)" xlink:href="#r"/>
<use transform="translate(645.12) scale(.99626)" xlink:href="#ad"/>
<use transform="translate(694.94) scale(.99626)" xlink:href="#ar"/>
<use transform="translate(744.75) scale(.99626)" xlink:href="#al"/>
<use transform="translate(794.56) scale(.99626)" xlink:href="#an"/>
<use transform="translate(840.51) scale(.99626)" xlink:href="#r"/>
<use transform="translate(896.7) scale(.99626)" xlink:href="#ah"/>
<use transform="translate(946.51) scale(.99626)" xlink:href="#s"/>
<use transform="translate(996.33) scale(.99626)" xlink:href="#x"/>
</g>
<path d="m322.69 115.68h10 10" fill="none" stroke="#9467bd" stroke-linecap="square" stroke-width="1.2"/>
<use x="332.68599" y="115.683307" fill="#9467bd" stroke="#9467bd" xlink:href="#d"/>
<g transform="translate(350.69 119.18) scale(.1 -.1)">
<use transform="scale(.99626)" xlink:href="#n"/>
<use transform="translate(71.93) scale(.99626)" xlink:href="#ac"/>
<use transform="translate(121.74) scale(.99626)" xlink:href="#n"/>
<use transform="translate(218.58) scale(.99626)" xlink:href="#o"/>
<use transform="translate(268.39) scale(.99626)" xlink:href="#p"/>
<use transform="translate(318.21) scale(.99626)" xlink:href="#v"/>
<use transform="translate(368.02) scale(.99626)" xlink:href="#h"/>
<use transform="translate(412.25) scale(.99626)" xlink:href="#g"/>
<use transform="translate(439.95) scale(.99626)" xlink:href="#l"/>
<use transform="translate(509.09) scale(.99626)" xlink:href="#y"/>
<use transform="translate(542.26) scale(.99626)" xlink:href="#ae"/>
<use transform="translate(588.93) scale(.99626)" xlink:href="#r"/>
<use transform="translate(645.12) scale(.99626)" xlink:href="#ah"/>
<use transform="translate(694.94) scale(.99626)" xlink:href="#s"/>
<use transform="translate(744.75) scale(.99626)" xlink:href="#al"/>
<use transform="translate(794.56) scale(.99626)" xlink:href="#an"/>
<use transform="translate(840.51) scale(.99626)" xlink:href="#r"/>
<use transform="translate(896.7) scale(.99626)" xlink:href="#ad"/>
<use transform="translate(946.51) scale(.99626)" xlink:href="#ar"/>
<use transform="translate(996.33) scale(.99626)" xlink:href="#x"/>
</g>
<g transform="translate(88.399 13.865) scale(.12 -.12)">
<defs>
<path id="bq" transform="scale(.015625)" d="m1318 1871c13 39 173 358 410 562 166 153 384 256 634 256 256 0 345-192 345-447 0-364-262-1092-390-1437-58-154-90-237-90-352 0-287 199-517 506-517 595 0 819 939 819 977 0 32-26 58-64 58-58 0-64-19-96-128-147-524-390-779-640-779-64 0-166 0-166 205 0 160 70 352 108 441 128 353 397 1070 397 1435 0 383-224 671-710 671-570 0-871-401-986-561-19 363-281 561-563 561-205 0-346-121-454-338-116-230-205-613-205-639 0-25 25-57 70-57 51 0 58 6 96 153 103 390 218 754 474 754 147 0 198-103 198-294 0-141-64-390-109-588l-179-689c-25-122-96-409-128-524-45-166-115-466-115-498 0-90 70-160 166-160 77 0 167 38 218 134 13 32 70 256 102 383l141 575 211 843z"/>
<path id="bo" transform="scale(.015625)" d="m4115 2017c96 0 192 0 192 108 0 115-109 115-217 115h-3578c-109 0-218 0-218-115 0-108 96-108 192-108h3629zm-25-1121c108 0 217 0 217 115 0 108-96 108-192 108h-3629c-96 0-192 0-192-108 0-115 109-115 218-115h3578z"/>
<path id="bp" transform="scale(.015625)" d="m2150 4122c0 134-6 134-121 134l-1901-3002v-166h1651v-631c0-233-13-297-461-297h-121v-160h768 768v160h-122c-448 0-461 64-461 297v631h653v166h-653v2868zm-352-419v-2449h-1542l1542 2449z"/>
<path id="bm" transform="scale(.015625)" d="m205 2675h441v-2038c0-293-38-456-128-515-64-45-128-58-313-58v-102h1433v96c-364 39-454 117-454 416v2201h1203v-2168c0-319-96-423-429-449v-96h1376v96c-345 26-409 90-409 424v3857l-32 13c-51-6-122-32-199-70-121-58-211-90-268-90-32 0-96 19-192 51-180 71-365 109-519 109-301 0-595-151-774-398-192-271-256-518-282-1074h-454v-205zm2182 205h-1203v328c0 656 134 971 416 971 141 0 218-50 333-221 121-176 205-232 352-232 45 0 70 12 102 44v-890z"/>
<path id="bl" transform="scale(.015625)" d="m4518 128c-288 0-352 64-576 539l-1593 3653h-128l-1331-3152c-410-937-487-1040-794-1040v-128h1267v128c-307 0-435 84-435 265 0 77 19 167 51 252l295 756h1676l263-623c77-176 121-344 121-436 0-162-108-214-448-214v-128h1632v128zm-3136 1536 736 1752 743-1752h-1479z"/>
<path id="bg" transform="scale(.015625)" d="m4461 4231h-1312v-135c352 0 467-70 467-250 0-102-45-274-122-466l-940-2347-967 2166c-211 468-262 615-262 711 0 122 89 186 294 186 26 0 96 0 186 13v122h-1703v-135c314 0 404-89 679-657l1574-3503h96l1421 3585c211 505 282 575 589 575v135z"/>
<path id="bf" transform="scale(.015625)" d="m4454 4224h-1523v-128c346 0 448-44 448-192 0-96-70-212-256-442l-723-884-269 377c-390 545-544 821-544 962 0 128 96 179 307 179h180v128h-1933v-128c416 0 531-96 1158-989l698-1027-1005-1232c-570-676-602-702-928-727v-121h1491v134c-371 0-486 51-486 200 0 96 96 257 333 552l761 951 608-897c211-313 327-531 327-627 0-115-103-179-320-179-26 0-96 0-173-13v-121h1901v121c-340 38-436 102-711 472l-1229 1748 935 1174c416 503 544 581 953 581v128z"/>
<path id="bn" transform="scale(.015625)" d="m250 1619v-403h1574v403h-1574z"/>
</defs>
<use transform="scale(.99626)" xlink:href="#av"/>
<use transform="translate(66.45) scale(.99626)" xlink:href="#l"/>
<use transform="translate(110.68) scale(.99626)" xlink:href="#u"/>
<use transform="translate(138.38) scale(.99626)" xlink:href="#h"/>
<use transform="translate(182.61) scale(.99626)" xlink:href="#g"/>
<use transform="translate(210.31) scale(.99626)" xlink:href="#m"/>
<use transform="translate(235.51) scale(.99626)" xlink:href="#at"/>
<use transform="translate(283.83) scale(.99626)" xlink:href="#l"/>
<use transform="translate(352.97) scale(.99626)" xlink:href="#aa"/>
<use transform="translate(397.21) scale(.99626)" xlink:href="#i"/>
<use transform="translate(447.02) scale(.99626)" xlink:href="#aj"/>
<use transform="translate(524.53) scale(.99626)" xlink:href="#p"/>
<use transform="translate(574.34) scale(.99626)" xlink:href="#o"/>
<use transform="translate(624.15) scale(.99626)" xlink:href="#g"/>
<use transform="translate(651.85) scale(.99626)" xlink:href="#h"/>
<use transform="translate(696.08) scale(.99626)" xlink:href="#g"/>
<use transform="translate(723.78) scale(.99626)" xlink:href="#m"/>
<use transform="translate(751.47) scale(.99626)" xlink:href="#i"/>
<use transform="translate(801.29) scale(.99626)" xlink:href="#q"/>
<use transform="translate(851.1) scale(.99626)" xlink:href="#h"/>
<use transform="translate(895.33) scale(.99626)" xlink:href="#u"/>
<use transform="translate(947.93) scale(.99626)" xlink:href="#aa"/>
<use transform="translate(992.17) scale(.99626)" xlink:href="#i"/>
<use transform="translate(1042) scale(.99626)" xlink:href="#ap"/>
<use transform="translate(1080.7) scale(.99626)" xlink:href="#g"/>
<use transform="translate(1133.3) scale(.99626)" xlink:href="#i"/>
<use transform="translate(1183.1) scale(.99626)" xlink:href="#af"/>
<use transform="translate(1241.2) scale(.99626)" xlink:href="#af"/>
<use transform="translate(1273.4) scale(.99626)" xlink:href="#h"/>
<use transform="translate(1317.6) scale(.99626)" xlink:href="#aa"/>
<use transform="translate(1361.9) scale(.99626)" xlink:href="#g"/>
<use transform="translate(1389.6) scale(.99626)" xlink:href="#i"/>
<use transform="translate(1439.4) scale(.99626)" xlink:href="#z"/>
<use transform="translate(1472.6) scale(.99626)" xlink:href="#m"/>
<use transform="translate(1500.3) scale(.99626)" xlink:href="#ao"/>
<use transform="translate(1544.5) scale(.99626)" xlink:href="#h"/>
<use transform="translate(1588.7) scale(.99626)" xlink:href="#g"/>
<use transform="translate(1616.4) scale(.99626)" xlink:href="#m"/>
<use transform="translate(1644.1) scale(.99626)" xlink:href="#i"/>
<use transform="translate(1693.9) scale(.99626)" xlink:href="#q"/>
<use transform="translate(1768.6) scale(.99626)" xlink:href="#o"/>
<use transform="translate(1818.5) scale(.99626)" xlink:href="#p"/>
<use transform="translate(1868.3) scale(.99626)" xlink:href="#v"/>
<use transform="translate(1918.1) scale(.99626)" xlink:href="#h"/>
<use transform="translate(1962.3) scale(.99626)" xlink:href="#g"/>
<use transform="translate(1990) scale(.99626)" xlink:href="#l"/>
<use transform="translate(2034.2) scale(.99626)" xlink:href="#ap"/>
<use transform="translate(2097.9) scale(.99626)" xlink:href="#af"/>
<use transform="translate(2131.1) scale(.99626)" xlink:href="#i"/>
<use transform="translate(2180.9) scale(.99626)" xlink:href="#z"/>
<use transform="translate(2239) scale(.99626)" xlink:href="#bq"/>
<use transform="translate(2324.9) scale(.99626)" xlink:href="#bo"/>
<use transform="translate(2424.3) scale(.99626)" xlink:href="#ai"/>
<use transform="translate(2470) scale(.99626)" xlink:href="#am"/>
<use transform="translate(2515.7) scale(.99626)" xlink:href="#ba"/>
<use transform="translate(2561.3) scale(.99626)" xlink:href="#bp"/>
<use transform="translate(2631.9) scale(.99626)" xlink:href="#y"/>
<use transform="translate(2665.1) scale(.99626)" xlink:href="#bm"/>
<use transform="translate(2720.5) scale(.99626)" xlink:href="#i"/>
<use transform="translate(2770.3) scale(.99626)" xlink:href="#h"/>
<use transform="translate(2814.6) scale(.99626)" xlink:href="#g"/>
<use transform="translate(2842.2) scale(.99626)" xlink:href="#al"/>
<use transform="translate(2892.1) scale(.99626)" xlink:href="#bl"/>
<use transform="translate(2950.5) scale(.99626)" xlink:href="#bg"/>
<use transform="translate(3022.5) scale(.99626)" xlink:href="#bf"/>
<use transform="translate(3094.4) scale(.99626)" xlink:href="#bn"/>
<use transform="translate(3127.6) scale(.99626)" xlink:href="#as"/>
<use transform="translate(3177.4) scale(.99626)" xlink:href="#ad"/>
<use transform="translate(3227.2) scale(.99626)" xlink:href="#s"/>
<use transform="translate(3277) scale(.99626)" xlink:href="#x"/>
</g>
<defs>
<clipPath id="w">
<rect x="50.872" y="46.399" width="250.01" height="201.98"/>
</clipPath>
<clipPath id="t">
<rect x="315.19" y="46.399" width="250.01" height="201.98"/>
</clipPath>
</defs>
</svg>
